<?xml version="1.0" encoding="UTF-8"?>
<svg height="600" width="800" xmlns="http://www.w3.org/2000/svg" xmlns:xlink="http://www.w3.org/1999/xlink">
    <g id="Notes" font-family="'LucidaGrande', 'Lucida Grande', sans-serif" font-size="13">
        <rect fill="white" height="600.0" width="800.0" x="0.0" y="0.0" />
        <g font-size="13">
            <text x="18.0" y="176.0">Small</text>
            <text x="18.0" y="376.0">Medium</text>
            <text x="18.0" y="576.0">Large</text>
        </g>
        <g font-size="9">
            <text x="250.0" y="30.0">Ultralight</text>
            <text x="450.0" y="30.0">Regular</text>
            <text x="650.0" y="30.0">Black</text>
            <text id="template-version" fill="#505050" text-anchor="end" x="785.0" y="575.0">Template v.3.0</text>
            <a href="https://wangchujiang.com/#/app">
                <text fill="#505050" text-anchor="end" x="785.0" y="590.0">https://wangchujiang.com/#/app</text>
            </a>
        </g>
    </g>
    <g id="Guides" stroke="rgb(39, 170, 225)" stroke-width="0.5">
        <path id="Capline-S" d="M18,76 l800,0" />
        <path id="H-reference" d="M85,145.755 L87.685,145.755 L113.369,79.287 L114.052,79.287 L114.052,76 L112.148,76 L85,145.755 Z M95.693,121.536 L130.996,121.536 L130.263,119.313 L96.474,119.313 L95.693,121.536 Z M139.15,145.755 L141.787,145.755 L114.638,76 L113.466,76 L113.466,79.287 L139.15,145.755 Z" stroke="none" />
        <path id="Baseline-S" d="M18,146 l800,0" />
        <path id="left-margin-Ultralight-S" d="M221,56 l0,110" />
        <path id="right-margin-Ultralight-S" d="M309,56 l0,110" />
        <path id="left-margin-Regular-S" d="M421,56 l0,110" />
        <path id="right-margin-Regular-S" d="M509,56 l0,110" />
        <path id="left-margin-Black-S" d="M621,56 l0,110" />
        <path id="right-margin-Black-S" d="M709,56 l0,110" />
        <path id="Capline-M" d="M18,276 l800,0" />
        <path id="Baseline-M" d="M18,346 l800,0" />
        <path id="Capline-L" d="M18,476 l800,0" />
        <path id="Baseline-L" d="M18,546 l800,0" />
    </g>
    <g id="Symbols">
        <g id="Ultralight-S">
            <path d="M291.528,86.459 L284.916,86.459 C283.3,79.659 274.056,81.404 274.259,85.274 C274.336,91.066 286.673,88.196 291.279,94.577 C295.475,101.308 290.549,110.332 280.03,110.304 C271.803,110.175 267.102,105.162 267.14,99.453 L273.641,99.453 C275.134,104.128 281.599,105.911 285.108,102.243 C286.378,100.366 286.853,97.818 279.649,96.252 C271.064,94.386 267.334,92.11 267.231,85.554 C267.641,80.449 271.245,76.939 277.225,76 L280.943,76 C286.559,76.613 290.73,80.019 291.528,86.459 M237.168,76 L246.65,76 L251.656,95.568 L255.388,76 L266.12,76 L266.126,110.036 L259.658,110.036 L259.234,91.435 L255.397,110.036 L248.525,110.036 L243.899,91.435 L243.859,110.036 L237.168,110.036 Z M251.37,137.706 C255.951,137.473 256.171,130.701 256.548,125.598 C256.867,121.285 259.949,117.227 266.286,117.409 C267.33,115.27 268.996,113.465 270.935,112.1 C254.847,107.316 245.375,121.788 251.37,137.706 M274.389,130.285 C262.536,128.208 263.319,109.941 280.773,111.525 C287.807,112.428 291.247,116.177 291.708,122.054 L285.165,122.054 C283.943,114.648 271.523,116.94 273.139,121.729 C274.871,126.426 274.729,126.303 274.389,130.285 M262.527,119.142 C268.639,130.382 263.362,145.807 248.225,145.115 L237.168,144.665 L237.168,112.394 L249.168,112.09 C251.149,112.084 253.235,112.524 255.12,113.138 C253.946,113.943 251.663,116.096 250.741,118.857 L243.824,118.857 L243.824,138.818 C243.824,138.818 250.788,138.841 252.142,138.818 C255.911,137.999 257.529,134.035 257.593,128.185 C257.638,124.04 258.82,120.671 262.527,119.142 M274.144,120.754 C274.348,118.997 277.289,118.223 280.297,118.6 C283.893,125.205 283.602,131.913 280.206,138.705 C277.341,139.046 273.868,137.776 274.205,135.747 C277.395,126.062 274.815,125.946 274.144,120.754 M279.865,139.756 C286.913,139.95 287.891,134.71 283.44,132.721 C283.868,130.414 284.008,128.261 283.756,126.314 C295.075,128.525 293.724,138.36 290.74,141.456 C284.108,148.997 265.058,146.561 266.068,134.515 L272.467,134.515 C273.017,138.146 275.262,139.746 279.865,139.756 M258.257,144.446 C259.321,143.604 261.628,141.741 263.11,139.234 C263.948,139.103 264.924,139.102 265.677,139.248 C266.783,141.772 268.908,143.671 271.187,145.134 C267.04,146.473 262.963,146.271 258.257,144.446" />
        </g>
        <g id="Regular-S">
            <path d="M491.528,86.459 L484.916,86.459 C483.3,79.659 474.056,81.404 474.259,85.274 C474.336,91.066 486.673,88.196 491.279,94.577 C495.475,101.308 490.549,110.332 480.03,110.304 C471.803,110.175 467.102,105.162 467.14,99.453 L473.641,99.453 C475.134,104.128 481.599,105.911 485.108,102.243 C486.378,100.366 486.853,97.818 479.649,96.252 C471.064,94.386 467.334,92.11 467.231,85.554 C467.641,80.449 471.245,76.939 477.225,76 L480.943,76 C486.559,76.613 490.73,80.019 491.528,86.459 M437.168,76 L446.65,76 L451.656,95.568 L455.388,76 L466.12,76 L466.126,110.036 L459.658,110.036 L459.234,91.435 L455.397,110.036 L448.525,110.036 L443.899,91.435 L443.859,110.036 L437.168,110.036 Z M451.37,137.706 C455.951,137.473 456.171,130.701 456.548,125.598 C456.867,121.285 459.949,117.227 466.286,117.409 C467.33,115.27 468.996,113.465 470.935,112.1 C454.847,107.316 445.375,121.788 451.37,137.706 M474.389,130.285 C462.536,128.208 463.319,109.941 480.773,111.525 C487.807,112.428 491.247,116.177 491.708,122.054 L485.165,122.054 C483.943,114.648 471.523,116.94 473.139,121.729 C474.871,126.426 474.729,126.303 474.389,130.285 M462.527,119.142 C468.639,130.382 463.362,145.807 448.225,145.115 L437.168,144.665 L437.168,112.394 L449.168,112.09 C451.149,112.084 453.235,112.524 455.121,113.138 C453.946,113.943 451.663,116.096 450.741,118.857 L443.824,118.857 L443.824,138.818 C443.824,138.818 450.788,138.841 452.142,138.818 C455.911,137.999 457.529,134.035 457.593,128.185 C457.638,124.04 458.82,120.671 462.527,119.142 M474.144,120.754 C474.348,118.997 477.289,118.223 480.297,118.6 C483.893,125.205 483.602,131.913 480.206,138.705 C477.341,139.046 473.868,137.776 474.205,135.747 C477.395,126.062 474.815,125.946 474.144,120.754 M479.865,139.756 C486.913,139.95 487.891,134.71 483.44,132.721 C483.868,130.414 484.008,128.261 483.756,126.314 C495.075,128.525 493.724,138.36 490.74,141.456 C484.108,148.997 465.058,146.561 466.068,134.515 L472.467,134.515 C473.017,138.146 475.262,139.746 479.865,139.756 M458.257,144.446 C459.321,143.604 461.628,141.741 463.11,139.234 C463.948,139.103 464.924,139.102 465.677,139.248 C466.783,141.772 468.908,143.671 471.187,145.134 C467.04,146.473 462.963,146.271 458.257,144.446" />
        </g>
        <g id="Black-S">
            <path d="M691.528,86.459 L684.916,86.459 C683.3,79.659 674.056,81.404 674.259,85.274 C674.336,91.066 686.673,88.196 691.279,94.577 C695.475,101.308 690.549,110.332 680.03,110.304 C671.803,110.175 667.102,105.162 667.14,99.453 L673.641,99.453 C675.134,104.128 681.599,105.911 685.108,102.243 C686.378,100.366 686.853,97.818 679.649,96.252 C671.064,94.386 667.334,92.11 667.231,85.554 C667.641,80.449 671.245,76.939 677.225,76 L680.943,76 C686.559,76.613 690.73,80.019 691.528,86.459 M637.168,76 L646.65,76 L651.656,95.568 L655.388,76 L666.12,76 L666.126,110.036 L659.658,110.036 L659.234,91.435 L655.398,110.036 L648.525,110.036 L643.899,91.435 L643.859,110.036 L637.168,110.036 Z M651.37,137.706 C655.951,137.473 656.171,130.701 656.548,125.598 C656.867,121.285 659.949,117.227 666.286,117.409 C667.33,115.27 668.996,113.465 670.935,112.1 C654.847,107.316 645.375,121.788 651.37,137.706 M674.389,130.285 C662.536,128.208 663.319,109.941 680.773,111.525 C687.807,112.428 691.247,116.177 691.708,122.054 L685.165,122.054 C683.943,114.648 671.523,116.94 673.139,121.729 C674.871,126.426 674.729,126.303 674.389,130.285 M662.527,119.142 C668.639,130.382 663.362,145.807 648.225,145.115 L637.168,144.665 L637.168,112.394 L649.168,112.09 C651.149,112.084 653.235,112.524 655.12,113.138 C653.946,113.943 651.663,116.096 650.741,118.857 L643.825,118.857 L643.825,138.818 C643.825,138.818 650.788,138.841 652.142,138.818 C655.911,137.999 657.529,134.035 657.593,128.185 C657.638,124.04 658.82,120.671 662.527,119.142 M674.144,120.754 C674.348,118.997 677.289,118.223 680.297,118.6 C683.893,125.205 683.602,131.913 680.206,138.705 C677.341,139.046 673.868,137.776 674.205,135.747 C677.395,126.062 674.815,125.946 674.144,120.754 M679.865,139.756 C686.913,139.95 687.891,134.71 683.44,132.721 C683.868,130.414 684.008,128.261 683.756,126.314 C695.075,128.525 693.724,138.36 690.74,141.456 C684.108,148.997 665.058,146.561 666.068,134.515 L672.467,134.515 C673.017,138.146 675.263,139.746 679.865,139.756 M658.257,144.446 C659.321,143.604 661.628,141.741 663.11,139.234 C663.948,139.103 664.924,139.102 665.677,139.248 C666.783,141.772 668.908,143.671 671.187,145.134 C667.04,146.473 662.963,146.271 658.257,144.446" />
        </g>
    </g>
</svg>