<?xml version="1.0" encoding="UTF-8"?>
<svg height="600" width="800" xmlns="http://www.w3.org/2000/svg" xmlns:xlink="http://www.w3.org/1999/xlink">
    <g id="Notes" font-family="'LucidaGrande', 'Lucida Grande', sans-serif" font-size="13">
        <rect fill="white" height="600.0" width="800.0" x="0.0" y="0.0" />
        <g font-size="13">
            <text x="18.0" y="176.0">Small</text>
            <text x="18.0" y="376.0">Medium</text>
            <text x="18.0" y="576.0">Large</text>
        </g>
        <g font-size="9">
            <text x="250.0" y="30.0">Ultralight</text>
            <text x="450.0" y="30.0">Regular</text>
            <text x="650.0" y="30.0">Black</text>
            <text id="template-version" fill="#505050" text-anchor="end" x="785.0" y="575.0">Template v.3.0</text>
            <a href="https://wangchujiang.com/#/app">
                <text fill="#505050" text-anchor="end" x="785.0" y="590.0">https://wangchujiang.com/#/app</text>
            </a>
        </g>
    </g>
    <g id="Guides" stroke="rgb(39, 170, 225)" stroke-width="0.5">
        <path id="Capline-S" d="M18,76 l800,0" />
        <path id="H-reference" d="M85,145.755 L87.685,145.755 L113.369,79.287 L114.052,79.287 L114.052,76 L112.148,76 L85,145.755 Z M95.693,121.536 L130.996,121.536 L130.263,119.313 L96.474,119.313 L95.693,121.536 Z M139.15,145.755 L141.787,145.755 L114.638,76 L113.466,76 L113.466,79.287 L139.15,145.755 Z" stroke="none" />
        <path id="Baseline-S" d="M18,146 l800,0" />
        <path id="left-margin-Ultralight-S" d="M221,56 l0,110" />
        <path id="right-margin-Ultralight-S" d="M309,56 l0,110" />
        <path id="left-margin-Regular-S" d="M421,56 l0,110" />
        <path id="right-margin-Regular-S" d="M509,56 l0,110" />
        <path id="left-margin-Black-S" d="M621,56 l0,110" />
        <path id="right-margin-Black-S" d="M709,56 l0,110" />
        <path id="Capline-M" d="M18,276 l800,0" />
        <path id="Baseline-M" d="M18,346 l800,0" />
        <path id="Capline-L" d="M18,476 l800,0" />
        <path id="Baseline-L" d="M18,546 l800,0" />
    </g>
    <g id="Symbols">
        <g id="Ultralight-S">
            <path d="M282.227,128.658 L277.898,128.658 L277.898,119.697 C276.84,120.349 275.732,120.922 274.577,121.41 C271.543,122.694 268.321,123.345 265,123.345 C261.679,123.345 258.457,122.694 255.423,121.41 C254.268,120.922 253.16,120.349 252.102,119.697 L252.102,128.658 L247.773,128.658 C246.855,128.658 246.415,129.786 247.09,130.408 L263.307,145.339 C264.264,146.22 265.736,146.22 266.693,145.339 L282.91,130.408 C283.585,129.786 283.145,128.658 282.227,128.658 Z" />
            <path d="M252.102,117.472 C255.768,120.001 260.21,121.483 265,121.483 C269.79,121.483 274.232,120.001 277.898,117.473 C283.844,113.37 287.742,106.512 287.742,98.742 C287.742,86.182 277.56,76 265,76 C252.44,76 242.258,86.182 242.258,98.742 C242.258,106.512 246.156,113.37 252.102,117.472 Z M265,119.258 L265,107.066 C266.79,107.066 268.448,106.5 269.806,105.539 L276.622,115.65 C273.318,117.925 269.315,119.258 265,119.258 Z M271.27,98.742 C271.27,100.466 270.574,102.027 269.448,103.161 C268.312,104.304 266.739,105.012 265,105.012 C263.261,105.012 261.688,104.304 260.552,103.161 C259.426,102.027 258.73,100.466 258.73,98.742 C258.73,95.278 261.537,92.471 265,92.471 C268.463,92.471 271.27,95.279 271.27,98.742 Z M257.382,79.686 L262.148,90.919 C260.481,91.527 259.062,92.653 258.088,94.103 L247.864,87.457 C250.155,83.986 253.471,81.252 257.382,79.686 Z" />
        </g>
        <g id="Regular-S">
            <path d="M482.227,128.658 L477.898,128.658 L477.898,119.697 C476.84,120.349 475.732,120.922 474.577,121.41 C471.543,122.694 468.321,123.345 465,123.345 C461.679,123.345 458.457,122.694 455.423,121.41 C454.268,120.922 453.16,120.349 452.102,119.697 L452.102,128.658 L447.773,128.658 C446.855,128.658 446.415,129.786 447.09,130.408 L463.307,145.339 C464.264,146.22 465.736,146.22 466.693,145.339 L482.91,130.408 C483.585,129.786 483.145,128.658 482.227,128.658 Z" />
            <path d="M452.102,117.472 C455.768,120.001 460.21,121.483 465,121.483 C469.79,121.483 474.232,120.001 477.898,117.473 C483.844,113.37 487.742,106.512 487.742,98.742 C487.742,86.182 477.56,76 465,76 C452.44,76 442.258,86.182 442.258,98.742 C442.258,106.512 446.156,113.37 452.102,117.472 Z M465,119.258 L465,107.066 C466.79,107.066 468.448,106.5 469.806,105.539 L476.622,115.65 C473.318,117.925 469.315,119.258 465,119.258 Z M471.27,98.742 C471.27,100.466 470.574,102.027 469.448,103.161 C468.312,104.304 466.739,105.012 465,105.012 C463.261,105.012 461.688,104.304 460.552,103.161 C459.426,102.027 458.73,100.466 458.73,98.742 C458.73,95.278 461.537,92.471 465,92.471 C468.463,92.471 471.27,95.279 471.27,98.742 Z M457.382,79.686 L462.148,90.919 C460.481,91.527 459.062,92.653 458.088,94.103 L447.864,87.457 C450.155,83.986 453.471,81.252 457.382,79.686 Z" />
        </g>
        <g id="Black-S">
            <path d="M682.227,128.658 L677.898,128.658 L677.898,119.697 C676.84,120.349 675.732,120.922 674.577,121.41 C671.543,122.694 668.321,123.345 665,123.345 C661.679,123.345 658.457,122.694 655.423,121.41 C654.268,120.922 653.16,120.349 652.102,119.697 L652.102,128.658 L647.773,128.658 C646.855,128.658 646.415,129.786 647.09,130.408 L663.307,145.339 C664.264,146.22 665.736,146.22 666.693,145.339 L682.91,130.408 C683.585,129.786 683.145,128.658 682.227,128.658 Z" />
            <path d="M652.102,117.472 C655.768,120.001 660.21,121.483 665,121.483 C669.79,121.483 674.232,120.001 677.898,117.473 C683.844,113.37 687.742,106.512 687.742,98.742 C687.742,86.182 677.56,76 665,76 C652.44,76 642.258,86.182 642.258,98.742 C642.258,106.512 646.156,113.37 652.102,117.472 Z M665,119.258 L665,107.066 C666.79,107.066 668.448,106.5 669.806,105.539 L676.622,115.65 C673.318,117.925 669.315,119.258 665,119.258 Z M671.27,98.742 C671.27,100.466 670.574,102.027 669.448,103.161 C668.312,104.304 666.739,105.012 665,105.012 C663.261,105.012 661.688,104.304 660.552,103.161 C659.426,102.027 658.73,100.466 658.73,98.742 C658.73,95.278 661.537,92.471 665,92.471 C668.463,92.471 671.27,95.279 671.27,98.742 Z M657.382,79.686 L662.148,90.919 C660.481,91.527 659.062,92.653 658.088,94.103 L647.864,87.457 C650.155,83.986 653.471,81.252 657.382,79.686 Z" />
        </g>
    </g>
</svg>