<?xml version="1.0" encoding="UTF-8"?>
<!--Generator: Apple Native CoreSVG 329.6-->
<!DOCTYPE svg
PUBLIC "-//W3C//DTD SVG 1.1//EN"
       "http://www.w3.org/Graphics/SVG/1.1/DTD/svg11.dtd">
<svg version="1.1" xmlns="http://www.w3.org/2000/svg" xmlns:xlink="http://www.w3.org/1999/xlink" viewBox="0 0 3300 2200">
 <!--glyph: "", point size: 100.0, font version: "20.0d10e1", template writer version: "138.0.0"-->
 <style>.monochrome-0 {-sfsymbols-motion-group:1;-sfsymbols-layer-tags:-1d8a7bfbc314b33f arcade.stick.console}
.monochrome-1 {-sfsymbols-motion-group:0;-sfsymbols-layer-tags:-1d8a7bfbc314b33f arcade.stick.console}

.multicolor-0:tintColor {-sfsymbols-motion-group:1;-sfsymbols-layer-tags:-1d8a7bfbc314b33f arcade.stick.console}
.multicolor-1:tintColor {-sfsymbols-motion-group:0;-sfsymbols-layer-tags:-1d8a7bfbc314b33f arcade.stick.console}

.hierarchical-0:secondary {-sfsymbols-motion-group:1;-sfsymbols-layer-tags:-1d8a7bfbc314b33f arcade.stick.console}
.hierarchical-1:primary {-sfsymbols-motion-group:0;-sfsymbols-layer-tags:-1d8a7bfbc314b33f arcade.stick.console}

.SFSymbolsPreviewWireframe {fill:none;opacity:1.0;stroke:black;stroke-width:0.5}
</style>
 <g id="Notes">
  <rect height="2200" id="artboard" style="fill:white;opacity:1" width="3300" x="0" y="0"/>
  <line style="fill:none;stroke:black;opacity:1;stroke-width:0.5;" x1="263" x2="3036" y1="292" y2="292"/>
  <text style="stroke:none;fill:black;font-family:sans-serif;font-size:13;font-weight:bold;" transform="matrix(1 0 0 1 263 322)">Weight/Scale Variations</text>
  <text style="stroke:none;fill:black;font-family:sans-serif;font-size:13;text-anchor:middle;" transform="matrix(1 0 0 1 559.711 322)">Ultralight</text>
  <text style="stroke:none;fill:black;font-family:sans-serif;font-size:13;text-anchor:middle;" transform="matrix(1 0 0 1 856.422 322)">Thin</text>
  <text style="stroke:none;fill:black;font-family:sans-serif;font-size:13;text-anchor:middle;" transform="matrix(1 0 0 1 1153.13 322)">Light</text>
  <text style="stroke:none;fill:black;font-family:sans-serif;font-size:13;text-anchor:middle;" transform="matrix(1 0 0 1 1449.84 322)">Regular</text>
  <text style="stroke:none;fill:black;font-family:sans-serif;font-size:13;text-anchor:middle;" transform="matrix(1 0 0 1 1746.56 322)">Medium</text>
  <text style="stroke:none;fill:black;font-family:sans-serif;font-size:13;text-anchor:middle;" transform="matrix(1 0 0 1 2043.27 322)">Semibold</text>
  <text style="stroke:none;fill:black;font-family:sans-serif;font-size:13;text-anchor:middle;" transform="matrix(1 0 0 1 2339.98 322)">Bold</text>
  <text style="stroke:none;fill:black;font-family:sans-serif;font-size:13;text-anchor:middle;" transform="matrix(1 0 0 1 2636.69 322)">Heavy</text>
  <text style="stroke:none;fill:black;font-family:sans-serif;font-size:13;text-anchor:middle;" transform="matrix(1 0 0 1 2933.4 322)">Black</text>
  <line style="fill:none;stroke:black;opacity:1;stroke-width:0.5;" x1="263" x2="3036" y1="1903" y2="1903"/>
  <g transform="matrix(0.2 0 0 0.2 263 1933)">
   <path d="m46.2402 4.15039c21.7773 0 39.4531-17.627 39.4531-39.4043s-17.6758-39.4043-39.4531-39.4043c-21.7285 0-39.4043 17.627-39.4043 39.4043s17.6758 39.4043 39.4043 39.4043Zm0-7.42188c-17.6758 0-31.9336-14.3066-31.9336-31.9824s14.2578-31.9824 31.9336-31.9824 31.9824 14.3066 31.9824 31.9824-14.3066 31.9824-31.9824 31.9824Zm-17.9688-31.9824c0 2.14844 1.51367 3.61328 3.75977 3.61328h10.498v10.5957c0 2.19727 1.46484 3.71094 3.61328 3.71094 2.24609 0 3.71094-1.51367 3.71094-3.71094v-10.5957h10.5957c2.19727 0 3.71094-1.46484 3.71094-3.61328 0-2.19727-1.51367-3.71094-3.71094-3.71094h-10.5957v-10.5469c0-2.24609-1.46484-3.75977-3.71094-3.75977-2.14844 0-3.61328 1.51367-3.61328 3.75977v10.5469h-10.498c-2.24609 0-3.75977 1.51367-3.75977 3.71094Z"/>
  </g>
  <g transform="matrix(0.2 0 0 0.2 281.506 1933)">
   <path d="m58.5449 14.5508c27.4902 0 49.8047-22.3145 49.8047-49.8047s-22.3145-49.8047-49.8047-49.8047-49.8047 22.3145-49.8047 49.8047 22.3145 49.8047 49.8047 49.8047Zm0-8.30078c-22.9492 0-41.5039-18.5547-41.5039-41.5039s18.5547-41.5039 41.5039-41.5039 41.5039 18.5547 41.5039 41.5039-18.5547 41.5039-41.5039 41.5039Zm-22.6562-41.5039c0 2.39258 1.66016 4.00391 4.15039 4.00391h14.3555v14.4043c0 2.44141 1.66016 4.15039 4.05273 4.15039 2.44141 0 4.15039-1.66016 4.15039-4.15039v-14.4043h14.4043c2.44141 0 4.15039-1.61133 4.15039-4.00391 0-2.44141-1.70898-4.15039-4.15039-4.15039h-14.4043v-14.3555c0-2.49023-1.70898-4.19922-4.15039-4.19922-2.39258 0-4.05273 1.70898-4.05273 4.19922v14.3555h-14.3555c-2.49023 0-4.15039 1.70898-4.15039 4.15039Z"/>
  </g>
  <g transform="matrix(0.2 0 0 0.2 304.924 1933)">
   <path d="m74.8535 28.3203c35.1074 0 63.623-28.4668 63.623-63.5742s-28.5156-63.623-63.623-63.623-63.5742 28.5156-63.5742 63.623 28.4668 63.5742 63.5742 63.5742Zm0-9.08203c-30.127 0-54.4922-24.3652-54.4922-54.4922s24.3652-54.4922 54.4922-54.4922 54.4922 24.3652 54.4922 54.4922-24.3652 54.4922-54.4922 54.4922Zm-28.8574-54.4922c0 2.58789 1.85547 4.39453 4.58984 4.39453h19.7266v19.7754c0 2.68555 1.85547 4.58984 4.44336 4.58984 2.68555 0 4.54102-1.85547 4.54102-4.58984v-19.7754h19.7754c2.68555 0 4.58984-1.80664 4.58984-4.39453 0-2.73438-1.85547-4.58984-4.58984-4.58984h-19.7754v-19.7266c0-2.73438-1.85547-4.63867-4.54102-4.63867-2.58789 0-4.44336 1.9043-4.44336 4.63867v19.7266h-19.7266c-2.73438 0-4.58984 1.85547-4.58984 4.58984Z"/>
  </g>
  <text style="stroke:none;fill:black;font-family:sans-serif;font-size:13;font-weight:bold;" transform="matrix(1 0 0 1 263 1953)">Design Variations</text>
  <text style="stroke:none;fill:black;font-family:sans-serif;font-size:13;" transform="matrix(1 0 0 1 263 1971)">Symbols are supported in up to nine weights and three scales.</text>
  <text style="stroke:none;fill:black;font-family:sans-serif;font-size:13;" transform="matrix(1 0 0 1 263 1989)">For optimal layout with text and other symbols, vertically align</text>
  <text style="stroke:none;fill:black;font-family:sans-serif;font-size:13;" transform="matrix(1 0 0 1 263 2007)">symbols with the adjacent text.</text>
  <line style="fill:none;stroke:#00AEEF;stroke-width:0.5;opacity:1.0;" x1="776" x2="776" y1="1919" y2="1933"/>
  <g transform="matrix(0.2 0 0 0.2 776 1933)">
   <path d="m16.5527 0.78125c2.58789 0 3.85742-0.976562 4.78516-3.71094l6.29883-17.2363h28.8086l6.29883 17.2363c0.927734 2.73438 2.19727 3.71094 4.73633 3.71094 2.58789 0 4.24805-1.5625 4.24805-4.00391 0-0.830078-0.146484-1.61133-0.537109-2.63672l-22.9004-60.9863c-1.12305-2.97852-3.125-4.49219-6.25-4.49219-3.02734 0-5.07812 1.46484-6.15234 4.44336l-22.9004 61.084c-0.390625 1.02539-0.537109 1.80664-0.537109 2.63672 0 2.44141 1.5625 3.95508 4.10156 3.95508Zm13.4766-28.3691 11.8652-32.8613h0.244141l11.8652 32.8613Z"/>
  </g>
  <line style="fill:none;stroke:#00AEEF;stroke-width:0.5;opacity:1.0;" x1="792.836" x2="792.836" y1="1919" y2="1933"/>
  <text style="stroke:none;fill:black;font-family:sans-serif;font-size:13;font-weight:bold;" transform="matrix(1 0 0 1 776 1953)">Margins</text>
  <text style="stroke:none;fill:black;font-family:sans-serif;font-size:13;" transform="matrix(1 0 0 1 776 1971)">Leading and trailing margins on the left and right side of each symbol</text>
  <text style="stroke:none;fill:black;font-family:sans-serif;font-size:13;" transform="matrix(1 0 0 1 776 1989)">can be adjusted by modifying the x-location of the margin guidelines.</text>
  <text style="stroke:none;fill:black;font-family:sans-serif;font-size:13;" transform="matrix(1 0 0 1 776 2007)">Modifications are automatically applied proportionally to all</text>
  <text style="stroke:none;fill:black;font-family:sans-serif;font-size:13;" transform="matrix(1 0 0 1 776 2025)">scales and weights.</text>
  <g transform="matrix(0.2 0 0 0.2 1289 1933)">
   <path d="m14.209 9.32617 8.49609 8.54492c4.29688 4.3457 9.22852 4.05273 13.8672-1.07422l53.4668-58.9355-4.83398-4.88281-53.0762 58.3984c-1.75781 2.00195-3.41797 2.49023-5.76172 0.146484l-5.85938-5.81055c-2.34375-2.29492-1.80664-4.00391 0.195312-5.81055l57.373-54.0039-4.88281-4.83398-57.959 54.4434c-4.93164 4.58984-5.32227 9.47266-1.02539 13.8184Zm32.0801-90.9668c-2.09961 2.05078-2.24609 4.93164-1.07422 6.88477 1.17188 1.80664 3.4668 2.97852 6.68945 2.14844 7.32422-1.70898 14.9414-2.00195 22.0703 2.68555l-2.92969 7.27539c-1.70898 4.15039-0.830078 7.08008 1.85547 9.81445l11.4746 11.5723c2.44141 2.44141 4.49219 2.53906 7.32422 2.05078l5.32227-0.976562 3.32031 3.36914-0.195312 2.7832c-0.195312 2.49023 0.439453 4.39453 2.88086 6.78711l3.80859 3.71094c2.39258 2.39258 5.46875 2.53906 7.8125 0.195312l14.5508-14.5996c2.34375-2.34375 2.24609-5.32227-0.146484-7.71484l-3.85742-3.80859c-2.39258-2.39258-4.24805-3.17383-6.64062-2.97852l-2.88086 0.244141-3.22266-3.17383 1.2207-5.61523c0.634766-2.83203-0.146484-5.0293-3.07617-7.95898l-10.9863-10.9375c-16.6992-16.6016-38.8672-16.2109-53.3203-1.75781Zm7.4707 1.85547c12.1582-8.88672 28.6133-7.37305 39.7461 3.75977l12.1582 12.0605c1.17188 1.17188 1.36719 2.09961 1.02539 3.80859l-1.61133 7.42188 7.51953 7.42188 4.93164-0.292969c1.26953-0.0488281 1.66016 0.0488281 2.63672 1.02539l2.88086 2.88086-12.207 12.207-2.88086-2.88086c-0.976562-0.976562-1.12305-1.36719-1.07422-2.68555l0.341797-4.88281-7.4707-7.42188-7.61719 1.26953c-1.61133 0.341797-2.34375 0.195312-3.56445-0.976562l-10.0098-10.0098c-1.26953-1.17188-1.41602-2.00195-0.634766-3.85742l4.39453-10.4492c-7.8125-7.27539-17.9688-10.4004-28.125-7.42188-0.78125 0.195312-1.07422-0.439453-0.439453-0.976562Z"/>
  </g>
  <text style="stroke:none;fill:black;font-family:sans-serif;font-size:13;font-weight:bold;" transform="matrix(1 0 0 1 1289 1953)">Exporting</text>
  <text style="stroke:none;fill:black;font-family:sans-serif;font-size:13;" transform="matrix(1 0 0 1 1289 1971)">Symbols should be outlined when exporting to ensure the</text>
  <text style="stroke:none;fill:black;font-family:sans-serif;font-size:13;" transform="matrix(1 0 0 1 1289 1989)">design is preserved when submitting to Xcode.</text>
  <text id="template-version" style="stroke:none;fill:black;font-family:sans-serif;font-size:13;text-anchor:end;" transform="matrix(1 0 0 1 3036 1933)">Template v.6.0</text>
  <text style="stroke:none;fill:black;font-family:sans-serif;font-size:13;text-anchor:end;" transform="matrix(1 0 0 1 3036 1951)">Requires Xcode 16 or greater</text>
  <text id="descriptive-name" style="stroke:none;fill:black;font-family:sans-serif;font-size:13;text-anchor:end;" transform="matrix(1 0 0 1 3036 1969)">Generated from custom.arcade.stick.console</text>
  <text style="stroke:none;fill:black;font-family:sans-serif;font-size:13;text-anchor:end;" transform="matrix(1 0 0 1 3036 1987)">Typeset at 100.0 points</text>
  <text style="stroke:none;fill:black;font-family:sans-serif;font-size:13;" transform="matrix(1 0 0 1 263 726)">Small</text>
  <text style="stroke:none;fill:black;font-family:sans-serif;font-size:13;" transform="matrix(1 0 0 1 263 1156)">Medium</text>
  <text style="stroke:none;fill:black;font-family:sans-serif;font-size:13;" transform="matrix(1 0 0 1 263 1586)">Large</text>
 </g>
 <g id="Guides">
  <g id="H-reference" style="fill:#27AAE1;stroke:none;" transform="matrix(1 0 0 1 339 696)">
   <path d="M0.993654 0L3.63775 0L29.3281-67.1323L30.0303-67.1323L30.0303-70.459L28.1226-70.459ZM11.6885-24.4799L46.9815-24.4799L46.2315-26.7285L12.4385-26.7285ZM55.1196 0L57.7637 0L30.6382-70.459L29.4326-70.459L29.4326-67.1323Z"/>
  </g>
  <line id="Baseline-S" style="fill:none;stroke:#27AAE1;opacity:1;stroke-width:0.5;" x1="263" x2="3036" y1="696" y2="696"/>
  <line id="Capline-S" style="fill:none;stroke:#27AAE1;opacity:1;stroke-width:0.5;" x1="263" x2="3036" y1="625.541" y2="625.541"/>
  <g id="H-reference" style="fill:#27AAE1;stroke:none;" transform="matrix(1 0 0 1 339 1126)">
   <path d="M0.993654 0L3.63775 0L29.3281-67.1323L30.0303-67.1323L30.0303-70.459L28.1226-70.459ZM11.6885-24.4799L46.9815-24.4799L46.2315-26.7285L12.4385-26.7285ZM55.1196 0L57.7637 0L30.6382-70.459L29.4326-70.459L29.4326-67.1323Z"/>
  </g>
  <line id="Baseline-M" style="fill:none;stroke:#27AAE1;opacity:1;stroke-width:0.5;" x1="263" x2="3036" y1="1126" y2="1126"/>
  <line id="Capline-M" style="fill:none;stroke:#27AAE1;opacity:1;stroke-width:0.5;" x1="263" x2="3036" y1="1055.54" y2="1055.54"/>
  <g id="H-reference" style="fill:#27AAE1;stroke:none;" transform="matrix(1 0 0 1 339 1556)">
   <path d="M0.993654 0L3.63775 0L29.3281-67.1323L30.0303-67.1323L30.0303-70.459L28.1226-70.459ZM11.6885-24.4799L46.9815-24.4799L46.2315-26.7285L12.4385-26.7285ZM55.1196 0L57.7637 0L30.6382-70.459L29.4326-70.459L29.4326-67.1323Z"/>
  </g>
  <line id="Baseline-L" style="fill:none;stroke:#27AAE1;opacity:1;stroke-width:0.5;" x1="263" x2="3036" y1="1556" y2="1556"/>
  <line id="Capline-L" style="fill:none;stroke:#27AAE1;opacity:1;stroke-width:0.5;" x1="263" x2="3036" y1="1485.54" y2="1485.54"/>
  <line id="right-margin-Black-S" style="fill:none;stroke:#00AEEF;stroke-width:0.5;opacity:1.0;" x1="3004.35" x2="3004.35" y1="600.785" y2="720.121"/>
  <line id="left-margin-Black-S" style="fill:none;stroke:#00AEEF;stroke-width:0.5;opacity:1.0;" x1="2862.45" x2="2862.45" y1="600.785" y2="720.121"/>
  <line id="right-margin-Regular-S" style="fill:none;stroke:#00AEEF;stroke-width:0.5;opacity:1.0;" x1="1514.52" x2="1514.52" y1="600.785" y2="720.121"/>
  <line id="left-margin-Regular-S" style="fill:none;stroke:#00AEEF;stroke-width:0.5;opacity:1.0;" x1="1385.17" x2="1385.17" y1="600.785" y2="720.121"/>
  <line id="right-margin-Ultralight-S" style="fill:none;stroke:#00AEEF;stroke-width:0.5;opacity:1.0;" x1="620.433" x2="620.433" y1="600.785" y2="720.121"/>
  <line id="left-margin-Ultralight-S" style="fill:none;stroke:#00AEEF;stroke-width:0.5;opacity:1.0;" x1="498.989" x2="498.989" y1="600.785" y2="720.121"/>
 </g>
 <g id="Symbols">
  <g id="Black-S" transform="matrix(1 0 0 1 2862.45 696)">
   <path class="monochrome-0 multicolor-0:tintColor hierarchical-0:secondary SFSymbolsPreviewWireframe" d="M31.2988 4.73633L110.596 4.73633C126.807 4.73633 133.789-4.19922 131.787-20.752L127.539-55.6641C125.977-68.7012 119.238-75.1953 107.178-75.1953L34.7168-75.1953C22.6562-75.1953 15.918-68.7012 14.3555-55.6641L10.1074-20.752C8.10547-4.19922 15.0879 4.73633 31.2988 4.73633ZM31.2988-9.42383C25.7324-9.42383 23.4375-13.0859 24.1699-19.043L28.418-53.9551C29.0039-58.6914 31.0547-61.0352 34.7168-61.0352L107.178-61.0352C110.84-61.0352 112.891-58.6914 113.477-53.9551L117.725-19.043C118.457-13.0859 116.162-9.42383 110.596-9.42383Z"/>
   <path class="monochrome-1 multicolor-1:tintColor hierarchical-1:primary SFSymbolsPreviewWireframe" d="M44.8242-25.2441C47.2168-25.2441 48.8281-26.3184 48.8281-27.9785L48.8281-37.5C52.002-39.0137 54.1992-42.2363 54.1992-45.9961C54.1992-51.1719 50-55.3711 44.8242-55.3711C39.6484-55.3711 35.4004-51.1719 35.4004-45.9961C35.4004-42.2363 37.6465-38.9648 40.8691-37.5L40.8691-27.9785C40.8691-26.3184 42.4805-25.2441 44.8242-25.2441ZM44.873-15.4297C53.4668-15.4297 59.5215-20.1172 59.5215-26.6602C59.5215-30.957 56.8848-34.4727 52.7344-36.377L52.7344-29.1992C53.2227-28.4668 53.5156-27.6367 53.5156-26.6602C53.5156-23.1934 50-20.8008 44.873-20.8008C39.6973-20.8008 36.1816-23.1934 36.1816-26.6602C36.1816-27.6367 36.4258-28.5156 36.9629-29.248L36.9629-36.3281C32.8125-34.4727 30.1758-30.957 30.1758-26.6602C30.1758-20.1172 36.2793-15.4297 44.873-15.4297ZM67.2363-37.3047C70.8496-37.3047 73.6328-40.0391 73.6328-43.6523C73.6328-47.2656 70.8496-50.0488 67.2363-50.0488C63.6719-50.0488 60.8398-47.2656 60.8398-43.6523C60.8398-40.0391 63.6719-37.3047 67.2363-37.3047ZM84.2285-37.3047C87.8418-37.3047 90.625-40.0391 90.625-43.6523C90.625-47.2656 87.8418-50.0488 84.2285-50.0488C80.6641-50.0488 77.832-47.2656 77.832-43.6523C77.832-40.0391 80.6641-37.3047 84.2285-37.3047ZM101.123-37.3047C104.736-37.3047 107.52-40.0391 107.52-43.6523C107.52-47.2656 104.736-50.0488 101.123-50.0488C97.5586-50.0488 94.7266-47.2656 94.7266-43.6523C94.7266-40.0391 97.5586-37.3047 101.123-37.3047ZM71.9727-20.4102C75.5859-20.4102 78.3691-23.1445 78.3691-26.7578C78.3691-30.3711 75.5859-33.1543 71.9727-33.1543C68.4082-33.1543 65.5762-30.3711 65.5762-26.7578C65.5762-23.1445 68.4082-20.4102 71.9727-20.4102ZM88.9648-20.4102C92.5781-20.4102 95.3613-23.1445 95.3613-26.7578C95.3613-30.3711 92.5781-33.1543 88.9648-33.1543C85.4004-33.1543 82.5684-30.3711 82.5684-26.7578C82.5684-23.1445 85.4004-20.4102 88.9648-20.4102ZM105.859-20.4102C109.473-20.4102 112.256-23.1445 112.256-26.7578C112.256-30.3711 109.473-33.1543 105.859-33.1543C102.295-33.1543 99.4629-30.3711 99.4629-26.7578C99.4629-23.1445 102.295-20.4102 105.859-20.4102Z"/>
  </g>
  <g id="Regular-S" transform="matrix(1 0 0 1 1385.17 696)">
   <path class="monochrome-0 multicolor-0:tintColor hierarchical-0:secondary SFSymbolsPreviewWireframe" d="M26.0742-0.390625L103.271-0.390625C114.697-0.390625 120.85-7.95898 119.385-20.0195L115.283-54.3457C114.062-64.4531 108.203-70.0684 99.1211-70.0684L30.2246-70.0684C21.1426-70.0684 15.2832-64.4531 14.1113-54.3457L9.96094-20.0195C8.49609-7.95898 14.6973-0.390625 26.0742-0.390625ZM26.0742-7.42188C19.6289-7.42188 16.1133-12.4512 17.0898-20.6055L21.0938-53.5156C21.8262-59.6191 25.0488-63.0371 30.2246-63.0371L99.1211-63.0371C104.297-63.0371 107.52-59.6191 108.252-53.5156L112.256-20.6055C113.232-12.4512 109.766-7.42188 103.271-7.42188Z"/>
   <path class="monochrome-1 multicolor-1:tintColor hierarchical-1:primary SFSymbolsPreviewWireframe" d="M39.4043-24.4141C40.9668-24.4141 42.334-25.1953 42.334-26.3184L42.334-36.6211C46.3379-37.8418 49.2676-41.6016 49.2676-46.0938C49.2676-51.5137 44.8242-55.957 39.4043-55.957C33.8867-55.957 29.4922-51.4648 29.4922-46.0938C29.4922-41.5527 32.4707-37.8418 36.5234-36.5723L36.5234-26.3184C36.5234-25.1953 37.793-24.4141 39.4043-24.4141ZM39.4043-15.9668C47.4609-15.9668 53.0273-20.2637 53.0273-26.3672C53.0273-30.5664 50.3906-33.8379 46.1914-35.5957L46.1914-29.9316C47.2656-29.0039 47.8516-27.7832 47.8516-26.3672C47.8516-22.998 44.3848-20.5566 39.4043-20.5566C34.4238-20.5566 30.957-22.998 30.957-26.3672C30.957-27.832 31.543-29.0527 32.666-29.9805L32.666-35.5957C28.3691-33.8867 25.7324-30.5664 25.7324-26.3672C25.7324-20.2637 31.3965-15.9668 39.4043-15.9668ZM62.0117-37.4023C65.1855-37.4023 67.7734-40.0391 67.7734-43.2129C67.7734-46.3867 65.1855-49.0234 62.0117-49.0234C58.8379-49.0234 56.2012-46.3867 56.2012-43.2129C56.2012-40.0391 58.8379-37.4023 62.0117-37.4023ZM78.1738-37.4023C81.3477-37.4023 83.9355-40.0391 83.9355-43.2129C83.9355-46.3867 81.3477-49.0234 78.1738-49.0234C75-49.0234 72.3633-46.3867 72.3633-43.2129C72.3633-40.0391 75-37.4023 78.1738-37.4023ZM94.2871-37.4023C97.4609-37.4023 100.049-40.0391 100.049-43.2129C100.049-46.3867 97.4609-49.0234 94.2871-49.0234C91.1133-49.0234 88.4766-46.3867 88.4766-43.2129C88.4766-40.0391 91.1133-37.4023 94.2871-37.4023ZM67.3828-21.2891C70.5566-21.2891 73.1445-23.9258 73.1445-27.0996C73.1445-30.2734 70.5566-32.9102 67.3828-32.9102C64.209-32.9102 61.5723-30.2734 61.5723-27.0996C61.5723-23.9258 64.209-21.2891 67.3828-21.2891ZM83.5449-21.2891C86.7188-21.2891 89.3066-23.9258 89.3066-27.0996C89.3066-30.2734 86.7188-32.9102 83.5449-32.9102C80.3711-32.9102 77.7344-30.2734 77.7344-27.0996C77.7344-23.9258 80.3711-21.2891 83.5449-21.2891ZM99.707-21.2891C102.881-21.2891 105.469-23.9258 105.469-27.0996C105.469-30.2734 102.881-32.9102 99.707-32.9102C96.4844-32.9102 93.8965-30.2734 93.8965-27.0996C93.8965-23.9258 96.4844-21.2891 99.707-21.2891Z"/>
  </g>
  <g id="Ultralight-S" transform="matrix(1 0 0 1 498.989 696)">
   <path class="monochrome-0 multicolor-0:tintColor hierarchical-0:secondary SFSymbolsPreviewWireframe" d="M23.6675-2.79734L97.7769-2.79734C108.204-2.79734 112.812-8.27685 111.393-20.1558L107.155-55.3447C106.161-63.5903 101.619-67.6616 93.6265-67.6616L27.8179-67.6616C19.8257-67.6616 15.2378-63.5903 14.2476-55.3447L10.0063-20.1558C8.58691-8.27685 13.1987-2.79734 23.6675-2.79734ZM23.6675-5.01516C14.8155-5.01516 10.8912-9.72658 12.1856-20.4692L16.4165-55.1504C17.2398-62.0259 21.0074-65.4438 27.8179-65.4438L93.6265-65.4438C100.392-65.4438 104.205-62.0259 105.028-55.1504L109.259-20.4692C110.553-9.68117 106.632-5.01516 97.7769-5.01516Z"/>
   <path class="monochrome-1 multicolor-1:tintColor hierarchical-1:primary SFSymbolsPreviewWireframe" d="M36.1348-24.3687C36.7891-24.3687 37.2481-24.6504 37.2481-25.0923L37.2481-37.8926C41.252-38.4321 44.3633-41.874 44.3633-46.0938C44.3633-50.6509 40.6465-54.3223 36.1348-54.3223C31.5254-54.3223 27.812-50.6475 27.812-46.0938C27.812-41.8706 30.9268-38.4321 34.9795-37.8891L34.9795-25.0923C34.9795-24.6504 35.4317-24.3687 36.1348-24.3687ZM36.1348-17.8286C42.6929-17.8286 47.3057-21.3535 47.3057-26.3672C47.3057-30.2939 44.4874-33.293 40.1973-34.3696L40.1973-32.2021C43.2696-31.229 45.2178-29.1001 45.2178-26.3672C45.2178-22.5894 41.4785-19.9209 36.1348-19.9209C30.7456-19.9209 26.961-22.5894 26.961-26.3672C26.961-29.1035 28.9546-31.2324 32.0303-32.2055L32.0303-34.3696C27.688-33.2964 24.8696-30.2939 24.8696-26.3672C24.8696-21.3535 29.4893-17.8286 36.1348-17.8286ZM57.3799-38.6738C59.9634-38.6738 61.961-40.6294 61.961-43.2129C61.961-45.8418 59.9634-47.7974 57.3799-47.7974C54.7964-47.7974 52.7954-45.8418 52.7954-43.2129C52.7954-40.6294 54.7964-38.6738 57.3799-38.6738ZM73.542-38.6738C76.1255-38.6738 78.1231-40.6294 78.1231-43.2129C78.1231-45.8418 76.1255-47.7974 73.542-47.7974C70.9585-47.7974 68.9575-45.8418 68.9575-43.2129C68.9575-40.6294 70.9585-38.6738 73.542-38.6738ZM89.6553-38.6738C92.2388-38.6738 94.2364-40.6294 94.2364-43.2129C94.2364-45.8418 92.2388-47.7974 89.6553-47.7974C87.0718-47.7974 85.0708-45.8418 85.0708-43.2129C85.0708-40.6294 87.0718-38.6738 89.6553-38.6738ZM62.751-22.5605C65.3345-22.5605 67.3321-24.5161 67.3321-27.0996C67.3321-29.7285 65.3345-31.6841 62.751-31.6841C60.1675-31.6841 58.1665-29.7285 58.1665-27.0996C58.1665-24.5161 60.1675-22.5605 62.751-22.5605ZM78.9131-22.5605C81.4966-22.5605 83.4942-24.5161 83.4942-27.0996C83.4942-29.7285 81.4966-31.6841 78.9131-31.6841C76.3296-31.6841 74.3286-29.7285 74.3286-27.0996C74.3286-24.5161 76.3296-22.5605 78.9131-22.5605ZM95.0298-22.5605C97.6133-22.5605 99.6109-24.5161 99.6109-27.0996C99.6109-29.7285 97.6133-31.6841 95.0298-31.6841C92.4429-31.6841 90.4453-29.7285 90.4453-27.0996C90.4453-24.5161 92.4429-22.5605 95.0298-22.5605Z"/>
  </g>
 </g>
</svg>
