<?xml version="1.0" encoding="UTF-8"?>
<!--Generator: Apple Native CoreSVG 329.6-->
<!DOCTYPE svg
PUBLIC "-//W3C//DTD SVG 1.1//EN"
       "http://www.w3.org/Graphics/SVG/1.1/DTD/svg11.dtd">
<svg version="1.1" xmlns="http://www.w3.org/2000/svg" xmlns:xlink="http://www.w3.org/1999/xlink" viewBox="0 0 3300 2200">
 <!--glyph: "", point size: 100.0, font version: "20.0d10e1", template writer version: "138.0.0"-->
 <style>.monochrome-0 {-sfsymbols-motion-group:0;-sfsymbols-layer-tags:-35f7f6aeaaa4ee1e arcade.stick.console.fill}

.multicolor-0:tintColor {-sfsymbols-motion-group:0;-sfsymbols-layer-tags:-35f7f6aeaaa4ee1e arcade.stick.console.fill}

.hierarchical-0:primary {-sfsymbols-motion-group:0;-sfsymbols-layer-tags:-35f7f6aeaaa4ee1e arcade.stick.console.fill}

.SFSymbolsPreviewWireframe {fill:none;opacity:1.0;stroke:black;stroke-width:0.5}
</style>
 <g id="Notes">
  <rect height="2200" id="artboard" style="fill:white;opacity:1" width="3300" x="0" y="0"/>
  <line style="fill:none;stroke:black;opacity:1;stroke-width:0.5;" x1="263" x2="3036" y1="292" y2="292"/>
  <text style="stroke:none;fill:black;font-family:sans-serif;font-size:13;font-weight:bold;" transform="matrix(1 0 0 1 263 322)">Weight/Scale Variations</text>
  <text style="stroke:none;fill:black;font-family:sans-serif;font-size:13;text-anchor:middle;" transform="matrix(1 0 0 1 559.711 322)">Ultralight</text>
  <text style="stroke:none;fill:black;font-family:sans-serif;font-size:13;text-anchor:middle;" transform="matrix(1 0 0 1 856.422 322)">Thin</text>
  <text style="stroke:none;fill:black;font-family:sans-serif;font-size:13;text-anchor:middle;" transform="matrix(1 0 0 1 1153.13 322)">Light</text>
  <text style="stroke:none;fill:black;font-family:sans-serif;font-size:13;text-anchor:middle;" transform="matrix(1 0 0 1 1449.84 322)">Regular</text>
  <text style="stroke:none;fill:black;font-family:sans-serif;font-size:13;text-anchor:middle;" transform="matrix(1 0 0 1 1746.56 322)">Medium</text>
  <text style="stroke:none;fill:black;font-family:sans-serif;font-size:13;text-anchor:middle;" transform="matrix(1 0 0 1 2043.27 322)">Semibold</text>
  <text style="stroke:none;fill:black;font-family:sans-serif;font-size:13;text-anchor:middle;" transform="matrix(1 0 0 1 2339.98 322)">Bold</text>
  <text style="stroke:none;fill:black;font-family:sans-serif;font-size:13;text-anchor:middle;" transform="matrix(1 0 0 1 2636.69 322)">Heavy</text>
  <text style="stroke:none;fill:black;font-family:sans-serif;font-size:13;text-anchor:middle;" transform="matrix(1 0 0 1 2933.4 322)">Black</text>
  <line style="fill:none;stroke:black;opacity:1;stroke-width:0.5;" x1="263" x2="3036" y1="1903" y2="1903"/>
  <g transform="matrix(0.2 0 0 0.2 263 1933)">
   <path d="m46.2402 4.15039c21.7773 0 39.4531-17.627 39.4531-39.4043s-17.6758-39.4043-39.4531-39.4043c-21.7285 0-39.4043 17.627-39.4043 39.4043s17.6758 39.4043 39.4043 39.4043Zm0-7.42188c-17.6758 0-31.9336-14.3066-31.9336-31.9824s14.2578-31.9824 31.9336-31.9824 31.9824 14.3066 31.9824 31.9824-14.3066 31.9824-31.9824 31.9824Zm-17.9688-31.9824c0 2.14844 1.51367 3.61328 3.75977 3.61328h10.498v10.5957c0 2.19727 1.46484 3.71094 3.61328 3.71094 2.24609 0 3.71094-1.51367 3.71094-3.71094v-10.5957h10.5957c2.19727 0 3.71094-1.46484 3.71094-3.61328 0-2.19727-1.51367-3.71094-3.71094-3.71094h-10.5957v-10.5469c0-2.24609-1.46484-3.75977-3.71094-3.75977-2.14844 0-3.61328 1.51367-3.61328 3.75977v10.5469h-10.498c-2.24609 0-3.75977 1.51367-3.75977 3.71094Z"/>
  </g>
  <g transform="matrix(0.2 0 0 0.2 281.506 1933)">
   <path d="m58.5449 14.5508c27.4902 0 49.8047-22.3145 49.8047-49.8047s-22.3145-49.8047-49.8047-49.8047-49.8047 22.3145-49.8047 49.8047 22.3145 49.8047 49.8047 49.8047Zm0-8.30078c-22.9492 0-41.5039-18.5547-41.5039-41.5039s18.5547-41.5039 41.5039-41.5039 41.5039 18.5547 41.5039 41.5039-18.5547 41.5039-41.5039 41.5039Zm-22.6562-41.5039c0 2.39258 1.66016 4.00391 4.15039 4.00391h14.3555v14.4043c0 2.44141 1.66016 4.15039 4.05273 4.15039 2.44141 0 4.15039-1.66016 4.15039-4.15039v-14.4043h14.4043c2.44141 0 4.15039-1.61133 4.15039-4.00391 0-2.44141-1.70898-4.15039-4.15039-4.15039h-14.4043v-14.3555c0-2.49023-1.70898-4.19922-4.15039-4.19922-2.39258 0-4.05273 1.70898-4.05273 4.19922v14.3555h-14.3555c-2.49023 0-4.15039 1.70898-4.15039 4.15039Z"/>
  </g>
  <g transform="matrix(0.2 0 0 0.2 304.924 1933)">
   <path d="m74.8535 28.3203c35.1074 0 63.623-28.4668 63.623-63.5742s-28.5156-63.623-63.623-63.623-63.5742 28.5156-63.5742 63.623 28.4668 63.5742 63.5742 63.5742Zm0-9.08203c-30.127 0-54.4922-24.3652-54.4922-54.4922s24.3652-54.4922 54.4922-54.4922 54.4922 24.3652 54.4922 54.4922-24.3652 54.4922-54.4922 54.4922Zm-28.8574-54.4922c0 2.58789 1.85547 4.39453 4.58984 4.39453h19.7266v19.7754c0 2.68555 1.85547 4.58984 4.44336 4.58984 2.68555 0 4.54102-1.85547 4.54102-4.58984v-19.7754h19.7754c2.68555 0 4.58984-1.80664 4.58984-4.39453 0-2.73438-1.85547-4.58984-4.58984-4.58984h-19.7754v-19.7266c0-2.73438-1.85547-4.63867-4.54102-4.63867-2.58789 0-4.44336 1.9043-4.44336 4.63867v19.7266h-19.7266c-2.73438 0-4.58984 1.85547-4.58984 4.58984Z"/>
  </g>
  <text style="stroke:none;fill:black;font-family:sans-serif;font-size:13;font-weight:bold;" transform="matrix(1 0 0 1 263 1953)">Design Variations</text>
  <text style="stroke:none;fill:black;font-family:sans-serif;font-size:13;" transform="matrix(1 0 0 1 263 1971)">Symbols are supported in up to nine weights and three scales.</text>
  <text style="stroke:none;fill:black;font-family:sans-serif;font-size:13;" transform="matrix(1 0 0 1 263 1989)">For optimal layout with text and other symbols, vertically align</text>
  <text style="stroke:none;fill:black;font-family:sans-serif;font-size:13;" transform="matrix(1 0 0 1 263 2007)">symbols with the adjacent text.</text>
  <line style="fill:none;stroke:#00AEEF;stroke-width:0.5;opacity:1.0;" x1="776" x2="776" y1="1919" y2="1933"/>
  <g transform="matrix(0.2 0 0 0.2 776 1933)">
   <path d="m16.5527 0.78125c2.58789 0 3.85742-0.976562 4.78516-3.71094l6.29883-17.2363h28.8086l6.29883 17.2363c0.927734 2.73438 2.19727 3.71094 4.73633 3.71094 2.58789 0 4.24805-1.5625 4.24805-4.00391 0-0.830078-0.146484-1.61133-0.537109-2.63672l-22.9004-60.9863c-1.12305-2.97852-3.125-4.49219-6.25-4.49219-3.02734 0-5.07812 1.46484-6.15234 4.44336l-22.9004 61.084c-0.390625 1.02539-0.537109 1.80664-0.537109 2.63672 0 2.44141 1.5625 3.95508 4.10156 3.95508Zm13.4766-28.3691 11.8652-32.8613h0.244141l11.8652 32.8613Z"/>
  </g>
  <line style="fill:none;stroke:#00AEEF;stroke-width:0.5;opacity:1.0;" x1="792.836" x2="792.836" y1="1919" y2="1933"/>
  <text style="stroke:none;fill:black;font-family:sans-serif;font-size:13;font-weight:bold;" transform="matrix(1 0 0 1 776 1953)">Margins</text>
  <text style="stroke:none;fill:black;font-family:sans-serif;font-size:13;" transform="matrix(1 0 0 1 776 1971)">Leading and trailing margins on the left and right side of each symbol</text>
  <text style="stroke:none;fill:black;font-family:sans-serif;font-size:13;" transform="matrix(1 0 0 1 776 1989)">can be adjusted by modifying the x-location of the margin guidelines.</text>
  <text style="stroke:none;fill:black;font-family:sans-serif;font-size:13;" transform="matrix(1 0 0 1 776 2007)">Modifications are automatically applied proportionally to all</text>
  <text style="stroke:none;fill:black;font-family:sans-serif;font-size:13;" transform="matrix(1 0 0 1 776 2025)">scales and weights.</text>
  <g transform="matrix(0.2 0 0 0.2 1289 1933)">
   <path d="m14.209 9.32617 8.49609 8.54492c4.29688 4.3457 9.22852 4.05273 13.8672-1.07422l53.4668-58.9355-4.83398-4.88281-53.0762 58.3984c-1.75781 2.00195-3.41797 2.49023-5.76172 0.146484l-5.85938-5.81055c-2.34375-2.29492-1.80664-4.00391 0.195312-5.81055l57.373-54.0039-4.88281-4.83398-57.959 54.4434c-4.93164 4.58984-5.32227 9.47266-1.02539 13.8184Zm32.0801-90.9668c-2.09961 2.05078-2.24609 4.93164-1.07422 6.88477 1.17188 1.80664 3.4668 2.97852 6.68945 2.14844 7.32422-1.70898 14.9414-2.00195 22.0703 2.68555l-2.92969 7.27539c-1.70898 4.15039-0.830078 7.08008 1.85547 9.81445l11.4746 11.5723c2.44141 2.44141 4.49219 2.53906 7.32422 2.05078l5.32227-0.976562 3.32031 3.36914-0.195312 2.7832c-0.195312 2.49023 0.439453 4.39453 2.88086 6.78711l3.80859 3.71094c2.39258 2.39258 5.46875 2.53906 7.8125 0.195312l14.5508-14.5996c2.34375-2.34375 2.24609-5.32227-0.146484-7.71484l-3.85742-3.80859c-2.39258-2.39258-4.24805-3.17383-6.64062-2.97852l-2.88086 0.244141-3.22266-3.17383 1.2207-5.61523c0.634766-2.83203-0.146484-5.0293-3.07617-7.95898l-10.9863-10.9375c-16.6992-16.6016-38.8672-16.2109-53.3203-1.75781Zm7.4707 1.85547c12.1582-8.88672 28.6133-7.37305 39.7461 3.75977l12.1582 12.0605c1.17188 1.17188 1.36719 2.09961 1.02539 3.80859l-1.61133 7.42188 7.51953 7.42188 4.93164-0.292969c1.26953-0.0488281 1.66016 0.0488281 2.63672 1.02539l2.88086 2.88086-12.207 12.207-2.88086-2.88086c-0.976562-0.976562-1.12305-1.36719-1.07422-2.68555l0.341797-4.88281-7.4707-7.42188-7.61719 1.26953c-1.61133 0.341797-2.34375 0.195312-3.56445-0.976562l-10.0098-10.0098c-1.26953-1.17188-1.41602-2.00195-0.634766-3.85742l4.39453-10.4492c-7.8125-7.27539-17.9688-10.4004-28.125-7.42188-0.78125 0.195312-1.07422-0.439453-0.439453-0.976562Z"/>
  </g>
  <text style="stroke:none;fill:black;font-family:sans-serif;font-size:13;font-weight:bold;" transform="matrix(1 0 0 1 1289 1953)">Exporting</text>
  <text style="stroke:none;fill:black;font-family:sans-serif;font-size:13;" transform="matrix(1 0 0 1 1289 1971)">Symbols should be outlined when exporting to ensure the</text>
  <text style="stroke:none;fill:black;font-family:sans-serif;font-size:13;" transform="matrix(1 0 0 1 1289 1989)">design is preserved when submitting to Xcode.</text>
  <text id="template-version" style="stroke:none;fill:black;font-family:sans-serif;font-size:13;text-anchor:end;" transform="matrix(1 0 0 1 3036 1933)">Template v.6.0</text>
  <text style="stroke:none;fill:black;font-family:sans-serif;font-size:13;text-anchor:end;" transform="matrix(1 0 0 1 3036 1951)">Requires Xcode 16 or greater</text>
  <text id="descriptive-name" style="stroke:none;fill:black;font-family:sans-serif;font-size:13;text-anchor:end;" transform="matrix(1 0 0 1 3036 1969)">Generated from custom.arcade.stick.console.fill</text>
  <text style="stroke:none;fill:black;font-family:sans-serif;font-size:13;text-anchor:end;" transform="matrix(1 0 0 1 3036 1987)">Typeset at 100.0 points</text>
  <text style="stroke:none;fill:black;font-family:sans-serif;font-size:13;" transform="matrix(1 0 0 1 263 726)">Small</text>
  <text style="stroke:none;fill:black;font-family:sans-serif;font-size:13;" transform="matrix(1 0 0 1 263 1156)">Medium</text>
  <text style="stroke:none;fill:black;font-family:sans-serif;font-size:13;" transform="matrix(1 0 0 1 263 1586)">Large</text>
 </g>
 <g id="Guides">
  <g id="H-reference" style="fill:#27AAE1;stroke:none;" transform="matrix(1 0 0 1 339 696)">
   <path d="M0.993654 0L3.63775 0L29.3281-67.1323L30.0303-67.1323L30.0303-70.459L28.1226-70.459ZM11.6885-24.4799L46.9815-24.4799L46.2315-26.7285L12.4385-26.7285ZM55.1196 0L57.7637 0L30.6382-70.459L29.4326-70.459L29.4326-67.1323Z"/>
  </g>
  <line id="Baseline-S" style="fill:none;stroke:#27AAE1;opacity:1;stroke-width:0.5;" x1="263" x2="3036" y1="696" y2="696"/>
  <line id="Capline-S" style="fill:none;stroke:#27AAE1;opacity:1;stroke-width:0.5;" x1="263" x2="3036" y1="625.541" y2="625.541"/>
  <g id="H-reference" style="fill:#27AAE1;stroke:none;" transform="matrix(1 0 0 1 339 1126)">
   <path d="M0.993654 0L3.63775 0L29.3281-67.1323L30.0303-67.1323L30.0303-70.459L28.1226-70.459ZM11.6885-24.4799L46.9815-24.4799L46.2315-26.7285L12.4385-26.7285ZM55.1196 0L57.7637 0L30.6382-70.459L29.4326-70.459L29.4326-67.1323Z"/>
  </g>
  <line id="Baseline-M" style="fill:none;stroke:#27AAE1;opacity:1;stroke-width:0.5;" x1="263" x2="3036" y1="1126" y2="1126"/>
  <line id="Capline-M" style="fill:none;stroke:#27AAE1;opacity:1;stroke-width:0.5;" x1="263" x2="3036" y1="1055.54" y2="1055.54"/>
  <g id="H-reference" style="fill:#27AAE1;stroke:none;" transform="matrix(1 0 0 1 339 1556)">
   <path d="M0.993654 0L3.63775 0L29.3281-67.1323L30.0303-67.1323L30.0303-70.459L28.1226-70.459ZM11.6885-24.4799L46.9815-24.4799L46.2315-26.7285L12.4385-26.7285ZM55.1196 0L57.7637 0L30.6382-70.459L29.4326-70.459L29.4326-67.1323Z"/>
  </g>
  <line id="Baseline-L" style="fill:none;stroke:#27AAE1;opacity:1;stroke-width:0.5;" x1="263" x2="3036" y1="1556" y2="1556"/>
  <line id="Capline-L" style="fill:none;stroke:#27AAE1;opacity:1;stroke-width:0.5;" x1="263" x2="3036" y1="1485.54" y2="1485.54"/>
  <line id="right-margin-Black-S" style="fill:none;stroke:#00AEEF;stroke-width:0.5;opacity:1.0;" x1="3004.35" x2="3004.35" y1="600.785" y2="720.121"/>
  <line id="left-margin-Black-S" style="fill:none;stroke:#00AEEF;stroke-width:0.5;opacity:1.0;" x1="2862.45" x2="2862.45" y1="600.785" y2="720.121"/>
  <line id="right-margin-Regular-S" style="fill:none;stroke:#00AEEF;stroke-width:0.5;opacity:1.0;" x1="1514.52" x2="1514.52" y1="600.785" y2="720.121"/>
  <line id="left-margin-Regular-S" style="fill:none;stroke:#00AEEF;stroke-width:0.5;opacity:1.0;" x1="1385.17" x2="1385.17" y1="600.785" y2="720.121"/>
  <line id="right-margin-Ultralight-S" style="fill:none;stroke:#00AEEF;stroke-width:0.5;opacity:1.0;" x1="620.433" x2="620.433" y1="600.785" y2="720.121"/>
  <line id="left-margin-Ultralight-S" style="fill:none;stroke:#00AEEF;stroke-width:0.5;opacity:1.0;" x1="498.989" x2="498.989" y1="600.785" y2="720.121"/>
 </g>
 <g id="Symbols">
  <g id="Black-S" transform="matrix(1 0 0 1 2862.45 696)">
   <path class="monochrome-0 multicolor-0:tintColor hierarchical-0:primary SFSymbolsPreviewWireframe" d="M31.2988 4.73633L110.596 4.73633C126.807 4.73633 133.789-4.19922 131.787-20.752L127.539-55.6641C125.977-68.7012 119.238-75.1953 107.178-75.1953L34.7168-75.1953C22.6562-75.1953 15.918-68.7012 14.3555-55.6641L10.1074-20.752C8.10547-4.19922 15.0879 4.73633 31.2988 4.73633ZM42.6758-24.4141C40.1367-24.4141 38.3789-25.5859 38.3789-27.3926L38.3789-37.6953C34.9121-39.2578 32.4707-42.7734 32.4707-46.875C32.4707-52.4414 37.0605-56.9824 42.6758-56.9824C48.291-56.9824 52.832-52.4414 52.832-46.875C52.832-42.7734 50.4395-39.3066 47.0215-37.6953L47.0215-27.3926C47.0215-25.5859 45.2637-24.4141 42.6758-24.4141ZM42.7246-13.8184C33.4473-13.8184 26.8066-18.8477 26.8066-25.9277C26.8066-30.6152 29.6875-34.375 34.1797-36.4258L34.1797-28.7598C33.5938-27.9297 33.3008-27.002 33.3008-25.9277C33.3008-22.2168 37.1094-19.6289 42.7246-19.6289C48.291-19.6289 52.0508-22.2168 52.0508-25.9277C52.0508-27.002 51.7578-27.8809 51.2207-28.7109L51.2207-36.4746C55.7129-34.375 58.5449-30.6152 58.5449-25.9277C58.5449-18.8477 52.002-13.8184 42.7246-13.8184ZM66.8945-37.4512C63.0371-37.4512 60.0098-40.4297 60.0098-44.3359C60.0098-48.2422 63.0371-51.2207 66.8945-51.2207C70.8008-51.2207 73.8281-48.2422 73.8281-44.3359C73.8281-40.4297 70.8008-37.4512 66.8945-37.4512ZM85.3027-37.4512C81.4453-37.4512 78.3691-40.4297 78.3691-44.3359C78.3691-48.2422 81.4453-51.2207 85.3027-51.2207C89.209-51.2207 92.1875-48.2422 92.1875-44.3359C92.1875-40.4297 89.209-37.4512 85.3027-37.4512ZM103.564-37.4512C99.707-37.4512 96.6309-40.4297 96.6309-44.3359C96.6309-48.2422 99.707-51.2207 103.564-51.2207C107.471-51.2207 110.498-48.2422 110.498-44.3359C110.498-40.4297 107.471-37.4512 103.564-37.4512ZM72.0215-19.1895C68.1641-19.1895 65.1367-22.168 65.1367-26.0742C65.1367-29.9805 68.1641-32.959 72.0215-32.959C75.9277-32.959 78.9551-29.9805 78.9551-26.0742C78.9551-22.168 75.9277-19.1895 72.0215-19.1895ZM90.4297-19.1895C86.5723-19.1895 83.4961-22.168 83.4961-26.0742C83.4961-29.9805 86.5723-32.959 90.4297-32.959C94.3359-32.959 97.3145-29.9805 97.3145-26.0742C97.3145-22.168 94.3359-19.1895 90.4297-19.1895ZM108.691-19.1895C104.834-19.1895 101.758-22.168 101.758-26.0742C101.758-29.9805 104.834-32.959 108.691-32.959C112.598-32.959 115.625-29.9805 115.625-26.0742C115.625-22.168 112.598-19.1895 108.691-19.1895Z"/>
  </g>
  <g id="Regular-S" transform="matrix(1 0 0 1 1385.17 696)">
   <path class="monochrome-0 multicolor-0:tintColor hierarchical-0:primary SFSymbolsPreviewWireframe" d="M26.0742-0.390625L103.271-0.390625C114.697-0.390625 120.85-7.95898 119.385-20.0195L115.283-54.3457C114.062-64.4531 108.203-70.0684 99.1211-70.0684L30.2246-70.0684C21.1426-70.0684 15.2832-64.4531 14.1113-54.3457L9.96094-20.0195C8.49609-7.95898 14.6973-0.390625 26.0742-0.390625ZM38.4277-23.9746C36.7676-23.9746 35.4004-24.8047 35.4004-25.9277L35.4004-36.5723C31.2012-37.9395 28.125-41.7969 28.125-46.4844C28.125-52.0508 32.7148-56.6895 38.4277-56.6895C44.043-56.6895 48.6816-52.0996 48.6816-46.4844C48.6816-41.8457 45.6055-37.9395 41.4551-36.6699L41.4551-25.9277C41.4551-24.8047 40.0391-23.9746 38.4277-23.9746ZM38.4277-15.2344C30.127-15.2344 24.2188-19.6777 24.2188-25.9766C24.2188-30.3711 26.9531-33.7891 31.3965-35.5957L31.3965-29.7363C30.2734-28.7598 29.6387-27.4902 29.6387-25.9766C29.6387-22.4609 33.2031-19.9707 38.4277-19.9707C43.6035-19.9707 47.168-22.4609 47.168-25.9766C47.168-27.4414 46.5332-28.7109 45.459-29.6875L45.459-35.5957C49.8535-33.7402 52.5879-30.3711 52.5879-25.9766C52.5879-19.6777 46.7285-15.2344 38.4277-15.2344ZM61.8652-37.4512C58.5449-37.4512 55.8594-40.1855 55.8594-43.5059C55.8594-46.8262 58.5449-49.5117 61.8652-49.5117C65.1855-49.5117 67.8711-46.8262 67.8711-43.5059C67.8711-40.1855 65.1855-37.4512 61.8652-37.4512ZM78.6133-37.4512C75.3418-37.4512 72.6562-40.1855 72.6562-43.5059C72.6562-46.8262 75.3418-49.5117 78.6133-49.5117C81.9336-49.5117 84.668-46.8262 84.668-43.5059C84.668-40.1855 81.9336-37.4512 78.6133-37.4512ZM95.4102-37.4512C92.041-37.4512 89.3555-40.1855 89.3555-43.5059C89.3555-46.8262 92.041-49.5117 95.4102-49.5117C98.6816-49.5117 101.367-46.8262 101.367-43.5059C101.367-40.1855 98.6816-37.4512 95.4102-37.4512ZM67.4805-20.752C64.1602-20.752 61.4258-23.4375 61.4258-26.7578C61.4258-30.0781 64.1602-32.8125 67.4805-32.8125C70.752-32.8125 73.4375-30.0781 73.4375-26.7578C73.4375-23.4375 70.752-20.752 67.4805-20.752ZM84.2285-20.752C80.9082-20.752 78.2227-23.4375 78.2227-26.7578C78.2227-30.0781 80.9082-32.8125 84.2285-32.8125C87.5-32.8125 90.2344-30.0781 90.2344-26.7578C90.2344-23.4375 87.5-20.752 84.2285-20.752ZM100.977-20.752C97.6562-20.752 94.9707-23.4375 94.9707-26.7578C94.9707-30.0781 97.6562-32.8125 100.977-32.8125C104.297-32.8125 107.031-30.0781 107.031-26.7578C107.031-23.4375 104.297-20.752 100.977-20.752Z"/>
  </g>
  <g id="Ultralight-S" transform="matrix(1 0 0 1 498.989 696)">
   <path class="monochrome-0 multicolor-0:tintColor hierarchical-0:primary SFSymbolsPreviewWireframe" d="M23.6675-2.79734L97.7769-2.79734C108.204-2.79734 112.812-8.27685 111.393-20.1558L107.155-55.3447C106.161-63.5903 101.619-67.6616 93.6265-67.6616L27.8179-67.6616C19.8257-67.6616 15.2378-63.5903 14.2476-55.3447L10.0063-20.1558C8.58691-8.27685 13.1987-2.79734 23.6675-2.79734ZM36.0664-24.3379C35.4053-24.3379 34.9463-24.623 34.9463-25.1104L34.9463-37.8891C30.8833-38.439 27.7617-41.8877 27.7617-46.1211C27.7617-50.6431 31.4888-54.3736 36.0664-54.3736C40.6372-54.3736 44.3223-50.6465 44.3223-46.1211C44.3223-41.8911 41.2007-38.439 37.1866-37.896L37.1866-25.1104C37.1866-24.623 36.7696-24.3379 36.0664-24.3379ZM36.0664-17.7773C29.4458-17.7773 24.7637-21.3125 24.7637-26.3398C24.7637-30.2803 27.5889-33.2896 31.9414-34.3696L31.9414-32.1885C28.9111-31.2119 26.9141-29.0796 26.9141-26.3398C26.9141-22.5518 30.7056-19.8799 36.0664-19.8799C41.4238-19.8799 45.1699-22.5518 45.1699-26.3398C45.1699-29.0762 43.2637-31.2085 40.1914-32.185L40.1914-34.3696C44.4952-33.2861 47.3204-30.2803 47.3204-26.3398C47.3204-21.3125 42.6416-17.7773 36.0664-17.7773ZM57.3697-38.6772C54.7759-38.6772 52.7715-40.6396 52.7715-43.2334C52.7715-45.8726 54.7759-47.8316 57.3697-47.8316C59.9634-47.8316 61.9678-45.8726 61.9678-43.2334C61.9678-40.6396 59.9634-38.6772 57.3697-38.6772ZM73.5728-38.6772C70.9825-38.6772 68.9326-40.6396 68.9326-43.2334C68.9326-45.8726 70.9825-47.8316 73.5728-47.8316C76.1211-47.8316 78.1744-45.8726 78.1744-43.2334C78.1744-40.6396 76.1211-38.6772 73.5728-38.6772ZM89.6885-38.6772C87.1368-38.6772 85.0869-40.6396 85.0869-43.2334C85.0869-45.8726 87.1368-47.8316 89.6885-47.8316C92.2789-47.8316 94.3287-45.8726 94.3287-43.2334C94.3287-40.6396 92.2789-38.6772 89.6885-38.6772ZM62.7578-22.5229C60.1641-22.5229 58.1563-24.5273 58.1563-27.0757C58.1563-29.7148 60.1641-31.6773 62.7578-31.6773C65.3482-31.6773 67.3526-29.7148 67.3526-27.0757C67.3526-24.5273 65.3482-22.5229 62.7578-22.5229ZM78.961-22.5229C76.3672-22.5229 74.3174-24.5273 74.3174-27.0757C74.3174-29.7148 76.3672-31.6773 78.961-31.6773C81.5059-31.6773 83.5591-29.7148 83.5591-27.0757C83.5591-24.5273 81.5059-22.5229 78.961-22.5229ZM95.0733-22.5229C92.5249-22.5229 90.4751-24.5273 90.4751-27.0757C90.4751-29.7148 92.5249-31.6773 95.0733-31.6773C97.667-31.6773 99.7203-29.7148 99.7203-27.0757C99.7203-24.5273 97.667-22.5229 95.0733-22.5229Z"/>
  </g>
 </g>
</svg>
