<?xml version="1.0" encoding="UTF-8"?>
<!--Generator: Apple Native CoreSVG 329.6-->
<!DOCTYPE svg
PUBLIC "-//W3C//DTD SVG 1.1//EN"
       "http://www.w3.org/Graphics/SVG/1.1/DTD/svg11.dtd">
<svg version="1.1" xmlns="http://www.w3.org/2000/svg" xmlns:xlink="http://www.w3.org/1999/xlink" viewBox="0 0 3300 2200">
 <!--glyph: "", point size: 100.0, font version: "20.0d10e1", template writer version: "138.0.0"-->
 <style>.monochrome-0 {-sfsymbols-motion-group:0;-sfsymbols-layer-tags:1a9f46a7cc976d36 laurel.leading}

.multicolor-0:tintColor {-sfsymbols-motion-group:0;-sfsymbols-layer-tags:1a9f46a7cc976d36 laurel.leading}

.hierarchical-0:primary {-sfsymbols-motion-group:0;-sfsymbols-layer-tags:1a9f46a7cc976d36 laurel.leading}

.SFSymbolsPreviewWireframe {fill:none;opacity:1.0;stroke:black;stroke-width:0.5}
</style>
 <g id="Notes">
  <rect height="2200" id="artboard" style="fill:white;opacity:1" width="3300" x="0" y="0"/>
  <line style="fill:none;stroke:black;opacity:1;stroke-width:0.5;" x1="263" x2="3036" y1="292" y2="292"/>
  <text style="stroke:none;fill:black;font-family:sans-serif;font-size:13;font-weight:bold;" transform="matrix(1 0 0 1 263 322)">Weight/Scale Variations</text>
  <text style="stroke:none;fill:black;font-family:sans-serif;font-size:13;text-anchor:middle;" transform="matrix(1 0 0 1 559.711 322)">Ultralight</text>
  <text style="stroke:none;fill:black;font-family:sans-serif;font-size:13;text-anchor:middle;" transform="matrix(1 0 0 1 856.422 322)">Thin</text>
  <text style="stroke:none;fill:black;font-family:sans-serif;font-size:13;text-anchor:middle;" transform="matrix(1 0 0 1 1153.13 322)">Light</text>
  <text style="stroke:none;fill:black;font-family:sans-serif;font-size:13;text-anchor:middle;" transform="matrix(1 0 0 1 1449.84 322)">Regular</text>
  <text style="stroke:none;fill:black;font-family:sans-serif;font-size:13;text-anchor:middle;" transform="matrix(1 0 0 1 1746.56 322)">Medium</text>
  <text style="stroke:none;fill:black;font-family:sans-serif;font-size:13;text-anchor:middle;" transform="matrix(1 0 0 1 2043.27 322)">Semibold</text>
  <text style="stroke:none;fill:black;font-family:sans-serif;font-size:13;text-anchor:middle;" transform="matrix(1 0 0 1 2339.98 322)">Bold</text>
  <text style="stroke:none;fill:black;font-family:sans-serif;font-size:13;text-anchor:middle;" transform="matrix(1 0 0 1 2636.69 322)">Heavy</text>
  <text style="stroke:none;fill:black;font-family:sans-serif;font-size:13;text-anchor:middle;" transform="matrix(1 0 0 1 2933.4 322)">Black</text>
  <line style="fill:none;stroke:black;opacity:1;stroke-width:0.5;" x1="263" x2="3036" y1="1903" y2="1903"/>
  <g transform="matrix(0.2 0 0 0.2 263 1933)">
   <path d="m46.2402 4.15039c21.7773 0 39.4531-17.627 39.4531-39.4043s-17.6758-39.4043-39.4531-39.4043c-21.7285 0-39.4043 17.627-39.4043 39.4043s17.6758 39.4043 39.4043 39.4043Zm0-7.42188c-17.6758 0-31.9336-14.3066-31.9336-31.9824s14.2578-31.9824 31.9336-31.9824 31.9824 14.3066 31.9824 31.9824-14.3066 31.9824-31.9824 31.9824Zm-17.9688-31.9824c0 2.14844 1.51367 3.61328 3.75977 3.61328h10.498v10.5957c0 2.19727 1.46484 3.71094 3.61328 3.71094 2.24609 0 3.71094-1.51367 3.71094-3.71094v-10.5957h10.5957c2.19727 0 3.71094-1.46484 3.71094-3.61328 0-2.19727-1.51367-3.71094-3.71094-3.71094h-10.5957v-10.5469c0-2.24609-1.46484-3.75977-3.71094-3.75977-2.14844 0-3.61328 1.51367-3.61328 3.75977v10.5469h-10.498c-2.24609 0-3.75977 1.51367-3.75977 3.71094Z"/>
  </g>
  <g transform="matrix(0.2 0 0 0.2 281.506 1933)">
   <path d="m58.5449 14.5508c27.4902 0 49.8047-22.3145 49.8047-49.8047s-22.3145-49.8047-49.8047-49.8047-49.8047 22.3145-49.8047 49.8047 22.3145 49.8047 49.8047 49.8047Zm0-8.30078c-22.9492 0-41.5039-18.5547-41.5039-41.5039s18.5547-41.5039 41.5039-41.5039 41.5039 18.5547 41.5039 41.5039-18.5547 41.5039-41.5039 41.5039Zm-22.6562-41.5039c0 2.39258 1.66016 4.00391 4.15039 4.00391h14.3555v14.4043c0 2.44141 1.66016 4.15039 4.05273 4.15039 2.44141 0 4.15039-1.66016 4.15039-4.15039v-14.4043h14.4043c2.44141 0 4.15039-1.61133 4.15039-4.00391 0-2.44141-1.70898-4.15039-4.15039-4.15039h-14.4043v-14.3555c0-2.49023-1.70898-4.19922-4.15039-4.19922-2.39258 0-4.05273 1.70898-4.05273 4.19922v14.3555h-14.3555c-2.49023 0-4.15039 1.70898-4.15039 4.15039Z"/>
  </g>
  <g transform="matrix(0.2 0 0 0.2 304.924 1933)">
   <path d="m74.8535 28.3203c35.1074 0 63.623-28.4668 63.623-63.5742s-28.5156-63.623-63.623-63.623-63.5742 28.5156-63.5742 63.623 28.4668 63.5742 63.5742 63.5742Zm0-9.08203c-30.127 0-54.4922-24.3652-54.4922-54.4922s24.3652-54.4922 54.4922-54.4922 54.4922 24.3652 54.4922 54.4922-24.3652 54.4922-54.4922 54.4922Zm-28.8574-54.4922c0 2.58789 1.85547 4.39453 4.58984 4.39453h19.7266v19.7754c0 2.68555 1.85547 4.58984 4.44336 4.58984 2.68555 0 4.54102-1.85547 4.54102-4.58984v-19.7754h19.7754c2.68555 0 4.58984-1.80664 4.58984-4.39453 0-2.73438-1.85547-4.58984-4.58984-4.58984h-19.7754v-19.7266c0-2.73438-1.85547-4.63867-4.54102-4.63867-2.58789 0-4.44336 1.9043-4.44336 4.63867v19.7266h-19.7266c-2.73438 0-4.58984 1.85547-4.58984 4.58984Z"/>
  </g>
  <text style="stroke:none;fill:black;font-family:sans-serif;font-size:13;font-weight:bold;" transform="matrix(1 0 0 1 263 1953)">Design Variations</text>
  <text style="stroke:none;fill:black;font-family:sans-serif;font-size:13;" transform="matrix(1 0 0 1 263 1971)">Symbols are supported in up to nine weights and three scales.</text>
  <text style="stroke:none;fill:black;font-family:sans-serif;font-size:13;" transform="matrix(1 0 0 1 263 1989)">For optimal layout with text and other symbols, vertically align</text>
  <text style="stroke:none;fill:black;font-family:sans-serif;font-size:13;" transform="matrix(1 0 0 1 263 2007)">symbols with the adjacent text.</text>
  <line style="fill:none;stroke:#00AEEF;stroke-width:0.5;opacity:1.0;" x1="776" x2="776" y1="1919" y2="1933"/>
  <g transform="matrix(0.2 0 0 0.2 776 1933)">
   <path d="m16.5527 0.78125c2.58789 0 3.85742-0.976562 4.78516-3.71094l6.29883-17.2363h28.8086l6.29883 17.2363c0.927734 2.73438 2.19727 3.71094 4.73633 3.71094 2.58789 0 4.24805-1.5625 4.24805-4.00391 0-0.830078-0.146484-1.61133-0.537109-2.63672l-22.9004-60.9863c-1.12305-2.97852-3.125-4.49219-6.25-4.49219-3.02734 0-5.07812 1.46484-6.15234 4.44336l-22.9004 61.084c-0.390625 1.02539-0.537109 1.80664-0.537109 2.63672 0 2.44141 1.5625 3.95508 4.10156 3.95508Zm13.4766-28.3691 11.8652-32.8613h0.244141l11.8652 32.8613Z"/>
  </g>
  <line style="fill:none;stroke:#00AEEF;stroke-width:0.5;opacity:1.0;" x1="792.836" x2="792.836" y1="1919" y2="1933"/>
  <text style="stroke:none;fill:black;font-family:sans-serif;font-size:13;font-weight:bold;" transform="matrix(1 0 0 1 776 1953)">Margins</text>
  <text style="stroke:none;fill:black;font-family:sans-serif;font-size:13;" transform="matrix(1 0 0 1 776 1971)">Leading and trailing margins on the left and right side of each symbol</text>
  <text style="stroke:none;fill:black;font-family:sans-serif;font-size:13;" transform="matrix(1 0 0 1 776 1989)">can be adjusted by modifying the x-location of the margin guidelines.</text>
  <text style="stroke:none;fill:black;font-family:sans-serif;font-size:13;" transform="matrix(1 0 0 1 776 2007)">Modifications are automatically applied proportionally to all</text>
  <text style="stroke:none;fill:black;font-family:sans-serif;font-size:13;" transform="matrix(1 0 0 1 776 2025)">scales and weights.</text>
  <g transform="matrix(0.2 0 0 0.2 1289 1933)">
   <path d="m14.209 9.32617 8.49609 8.54492c4.29688 4.3457 9.22852 4.05273 13.8672-1.07422l53.4668-58.9355-4.83398-4.88281-53.0762 58.3984c-1.75781 2.00195-3.41797 2.49023-5.76172 0.146484l-5.85938-5.81055c-2.34375-2.29492-1.80664-4.00391 0.195312-5.81055l57.373-54.0039-4.88281-4.83398-57.959 54.4434c-4.93164 4.58984-5.32227 9.47266-1.02539 13.8184Zm32.0801-90.9668c-2.09961 2.05078-2.24609 4.93164-1.07422 6.88477 1.17188 1.80664 3.4668 2.97852 6.68945 2.14844 7.32422-1.70898 14.9414-2.00195 22.0703 2.68555l-2.92969 7.27539c-1.70898 4.15039-0.830078 7.08008 1.85547 9.81445l11.4746 11.5723c2.44141 2.44141 4.49219 2.53906 7.32422 2.05078l5.32227-0.976562 3.32031 3.36914-0.195312 2.7832c-0.195312 2.49023 0.439453 4.39453 2.88086 6.78711l3.80859 3.71094c2.39258 2.39258 5.46875 2.53906 7.8125 0.195312l14.5508-14.5996c2.34375-2.34375 2.24609-5.32227-0.146484-7.71484l-3.85742-3.80859c-2.39258-2.39258-4.24805-3.17383-6.64062-2.97852l-2.88086 0.244141-3.22266-3.17383 1.2207-5.61523c0.634766-2.83203-0.146484-5.0293-3.07617-7.95898l-10.9863-10.9375c-16.6992-16.6016-38.8672-16.2109-53.3203-1.75781Zm7.4707 1.85547c12.1582-8.88672 28.6133-7.37305 39.7461 3.75977l12.1582 12.0605c1.17188 1.17188 1.36719 2.09961 1.02539 3.80859l-1.61133 7.42188 7.51953 7.42188 4.93164-0.292969c1.26953-0.0488281 1.66016 0.0488281 2.63672 1.02539l2.88086 2.88086-12.207 12.207-2.88086-2.88086c-0.976562-0.976562-1.12305-1.36719-1.07422-2.68555l0.341797-4.88281-7.4707-7.42188-7.61719 1.26953c-1.61133 0.341797-2.34375 0.195312-3.56445-0.976562l-10.0098-10.0098c-1.26953-1.17188-1.41602-2.00195-0.634766-3.85742l4.39453-10.4492c-7.8125-7.27539-17.9688-10.4004-28.125-7.42188-0.78125 0.195312-1.07422-0.439453-0.439453-0.976562Z"/>
  </g>
  <text style="stroke:none;fill:black;font-family:sans-serif;font-size:13;font-weight:bold;" transform="matrix(1 0 0 1 1289 1953)">Exporting</text>
  <text style="stroke:none;fill:black;font-family:sans-serif;font-size:13;" transform="matrix(1 0 0 1 1289 1971)">Symbols should be outlined when exporting to ensure the</text>
  <text style="stroke:none;fill:black;font-family:sans-serif;font-size:13;" transform="matrix(1 0 0 1 1289 1989)">design is preserved when submitting to Xcode.</text>
  <text id="template-version" style="stroke:none;fill:black;font-family:sans-serif;font-size:13;text-anchor:end;" transform="matrix(1 0 0 1 3036 1933)">Template v.6.0</text>
  <text style="stroke:none;fill:black;font-family:sans-serif;font-size:13;text-anchor:end;" transform="matrix(1 0 0 1 3036 1951)">Requires Xcode 16 or greater</text>
  <text id="descriptive-name" style="stroke:none;fill:black;font-family:sans-serif;font-size:13;text-anchor:end;" transform="matrix(1 0 0 1 3036 1969)">Generated from custom.laurel.leading</text>
  <text style="stroke:none;fill:black;font-family:sans-serif;font-size:13;text-anchor:end;" transform="matrix(1 0 0 1 3036 1987)">Typeset at 100.0 points</text>
  <text style="stroke:none;fill:black;font-family:sans-serif;font-size:13;" transform="matrix(1 0 0 1 263 726)">Small</text>
  <text style="stroke:none;fill:black;font-family:sans-serif;font-size:13;" transform="matrix(1 0 0 1 263 1156)">Medium</text>
  <text style="stroke:none;fill:black;font-family:sans-serif;font-size:13;" transform="matrix(1 0 0 1 263 1586)">Large</text>
 </g>
 <g id="Guides">
  <g id="H-reference" style="fill:#27AAE1;stroke:none;" transform="matrix(1 0 0 1 339 696)">
   <path d="M0.993654 0L3.63775 0L29.3281-67.1323L30.0303-67.1323L30.0303-70.459L28.1226-70.459ZM11.6885-24.4799L46.9815-24.4799L46.2315-26.7285L12.4385-26.7285ZM55.1196 0L57.7637 0L30.6382-70.459L29.4326-70.459L29.4326-67.1323Z"/>
  </g>
  <line id="Baseline-S" style="fill:none;stroke:#27AAE1;opacity:1;stroke-width:0.5;" x1="263" x2="3036" y1="696" y2="696"/>
  <line id="Capline-S" style="fill:none;stroke:#27AAE1;opacity:1;stroke-width:0.5;" x1="263" x2="3036" y1="625.541" y2="625.541"/>
  <g id="H-reference" style="fill:#27AAE1;stroke:none;" transform="matrix(1 0 0 1 339 1126)">
   <path d="M0.993654 0L3.63775 0L29.3281-67.1323L30.0303-67.1323L30.0303-70.459L28.1226-70.459ZM11.6885-24.4799L46.9815-24.4799L46.2315-26.7285L12.4385-26.7285ZM55.1196 0L57.7637 0L30.6382-70.459L29.4326-70.459L29.4326-67.1323Z"/>
  </g>
  <line id="Baseline-M" style="fill:none;stroke:#27AAE1;opacity:1;stroke-width:0.5;" x1="263" x2="3036" y1="1126" y2="1126"/>
  <line id="Capline-M" style="fill:none;stroke:#27AAE1;opacity:1;stroke-width:0.5;" x1="263" x2="3036" y1="1055.54" y2="1055.54"/>
  <g id="H-reference" style="fill:#27AAE1;stroke:none;" transform="matrix(1 0 0 1 339 1556)">
   <path d="M0.993654 0L3.63775 0L29.3281-67.1323L30.0303-67.1323L30.0303-70.459L28.1226-70.459ZM11.6885-24.4799L46.9815-24.4799L46.2315-26.7285L12.4385-26.7285ZM55.1196 0L57.7637 0L30.6382-70.459L29.4326-70.459L29.4326-67.1323Z"/>
  </g>
  <line id="Baseline-L" style="fill:none;stroke:#27AAE1;opacity:1;stroke-width:0.5;" x1="263" x2="3036" y1="1556" y2="1556"/>
  <line id="Capline-L" style="fill:none;stroke:#27AAE1;opacity:1;stroke-width:0.5;" x1="263" x2="3036" y1="1485.54" y2="1485.54"/>
  <line id="right-margin-Black-S" style="fill:none;stroke:#00AEEF;stroke-width:0.5;opacity:1.0;" x1="2962.06" x2="2962.06" y1="600.785" y2="720.121"/>
  <line id="left-margin-Black-S" style="fill:none;stroke:#00AEEF;stroke-width:0.5;opacity:1.0;" x1="2904.74" x2="2904.74" y1="600.785" y2="720.121"/>
  <line id="right-margin-Regular-S" style="fill:none;stroke:#00AEEF;stroke-width:0.5;opacity:1.0;" x1="1476.55" x2="1476.55" y1="600.785" y2="720.121"/>
  <line id="left-margin-Regular-S" style="fill:none;stroke:#00AEEF;stroke-width:0.5;opacity:1.0;" x1="1423.14" x2="1423.14" y1="600.785" y2="720.121"/>
  <line id="right-margin-Ultralight-S" style="fill:none;stroke:#00AEEF;stroke-width:0.5;opacity:1.0;" x1="585.875" x2="585.875" y1="600.785" y2="720.121"/>
  <line id="left-margin-Ultralight-S" style="fill:none;stroke:#00AEEF;stroke-width:0.5;opacity:1.0;" x1="533.547" x2="533.547" y1="600.785" y2="720.121"/>
 </g>
 <g id="Symbols">
  <g id="Black-S" transform="matrix(1 0 0 1 2904.74 696)">
   <path class="monochrome-0 multicolor-0:tintColor hierarchical-0:primary SFSymbolsPreviewWireframe" d="M36.2793 0.683594C33.4473 0.439453 29.9805 1.41602 27.5879 3.125C26.8555 3.71094 26.7578 4.54102 27.3926 5.22461C29.3945 7.37305 32.7148 8.98438 35.6445 9.27734C38.6719 9.61914 42.1875 8.54492 44.4824 6.54297C45.0684 5.95703 45.0684 5.17578 44.5312 4.63867C42.4805 2.44141 39.1602 0.878906 36.2793 0.683594ZM44.4336-13.2812C42.7246-10.9375 41.6504-7.51953 41.7969-4.63867C41.9922-1.61133 43.457 1.70898 45.5078 3.66211C46.0449 4.19922 46.8262 4.19922 47.3633 3.66211C49.5117 1.51367 50.7812-2.00195 50.4395-5.12695C50.2441-8.05664 48.6816-11.377 46.5332-13.4277C45.8496-14.1113 45.0195-14.0137 44.4336-13.2812ZM25.1953-10.1562C22.5098-11.084 18.8965-11.0352 16.1133-9.96094C15.2344-9.61914 14.9414-8.88672 15.3809-8.05664C16.7969-5.41992 19.5801-2.97852 22.3633-1.95312C25.1465-0.78125 28.8086-0.976562 31.5918-2.44141C32.2754-2.83203 32.5195-3.51562 32.1289-4.19922C30.8105-6.83594 28.0273-9.22852 25.1953-10.1562ZM36.6699-21.5332C34.4238-19.8242 32.4707-16.748 31.8359-13.916C31.2012-11.0352 31.7871-7.4707 33.3008-4.93164C33.6914-4.19922 34.4727-4.00391 35.1562-4.44336C37.7441-6.05469 39.8438-9.08203 40.332-12.1094C40.8691-15.0391 40.1855-18.6523 38.7207-21.1426C38.2324-21.9727 37.4023-22.1191 36.6699-21.5332ZM6.83594-25.6348C7.08008-22.6562 8.59375-19.3359 10.6934-17.2852C12.793-15.0879 16.2598-13.7695 19.3359-13.9648C20.166-14.0137 20.6543-14.5996 20.5566-15.4297C20.3613-18.457 18.7988-21.6797 16.6504-23.584C14.5996-25.5859 11.2305-27.002 8.30078-27.0996C7.37305-27.1484 6.78711-26.5625 6.83594-25.6348ZM31.7871-29.3945C28.9551-28.7598 25.9277-26.7578 24.2188-24.3652C22.5098-21.9727 21.6309-18.4082 21.9727-15.5273C22.0215-14.6973 22.6562-14.2578 23.4863-14.3555C26.5625-14.7949 29.6875-16.748 31.2988-19.3359C33.0078-21.6797 33.8867-25.2441 33.4473-28.2227C33.3496-29.1504 32.666-29.5898 31.7871-29.3945ZM23.7305-38.3301C21.3379-36.4258 19.5801-33.252 19.2383-30.3711C19.1406-29.5898 19.5801-29.0039 20.3613-28.9062C23.3887-28.5156 26.9531-29.5898 29.248-31.6895C31.4941-33.6426 33.252-36.8652 33.6426-39.7949C33.7402-40.7227 33.2031-41.3086 32.3242-41.3086C29.3457-41.4062 25.8789-40.1855 23.7305-38.3301ZM7.17773-44.043C6.64062-41.1621 7.27539-37.5488 8.78906-34.9609C10.3027-32.2754 13.3301-30.0781 16.3574-29.541C17.1387-29.3945 17.7734-29.834 17.9199-30.6152C18.4082-33.4961 17.7246-37.0605 16.1621-39.5996C14.6973-41.9434 11.8164-44.1406 8.98438-45.1172C8.05664-45.4102 7.32422-44.9707 7.17773-44.043ZM26.1719-51.9531C23.3887-51.0254 20.6055-48.6816 19.2383-46.0938C18.8477-45.3613 19.0918-44.6289 19.7754-44.2871C22.4609-42.8223 26.1719-42.627 29.0527-43.7988C31.8359-44.873 34.6191-47.3145 35.9863-49.9512C36.4258-50.7812 36.1328-51.5137 35.2539-51.8555C32.5195-52.8809 28.9062-52.9297 26.1719-51.9531ZM12.5977-62.9395C11.084-60.4004 10.498-56.7871 11.0352-53.9062C11.5723-50.8789 13.623-47.8027 16.2598-46.2402C16.9922-45.8008 17.6758-45.9961 18.0664-46.7285C19.5801-49.2676 20.166-52.8809 19.5312-55.7129C18.8965-58.6426 16.9434-61.6699 14.6484-63.3789C13.916-63.916 13.0859-63.7207 12.5977-62.9395ZM33.6426-63.623C30.7617-63.0859 27.6855-61.084 25.9277-58.6426C25.4883-58.0078 25.6348-57.2754 26.2695-56.8359C28.7598-55.0293 32.373-54.3457 35.3516-55.1758C38.2324-55.8105 41.3086-57.8125 43.0664-60.1562C43.6035-60.9375 43.457-61.7188 42.627-62.1582C40.0879-63.5742 36.5234-64.1602 33.6426-63.623ZM21.7773-76.416C19.9219-74.0723 18.75-70.5566 18.8965-67.5781C18.9453-64.5996 20.5566-61.2793 22.9492-59.3262C23.584-58.7891 24.3652-58.8867 24.8535-59.5215C26.709-61.8164 27.832-65.2832 27.5879-68.2129C27.3926-71.1426 25.8789-74.4629 23.8281-76.5137C23.1445-77.1973 22.3633-77.1484 21.7773-76.416ZM43.6035-80.127C40.7227-79.8828 37.4023-78.3691 35.3027-76.3184C33.2031-74.2188 31.7871-70.8984 31.6895-68.0176C31.6406-67.1875 32.1289-66.6504 32.959-66.6504C36.0352-66.5527 39.4043-68.0176 41.4551-70.2637C43.5059-72.3633 44.9707-75.7324 45.1172-78.7109C45.1172-79.6387 44.5312-80.2246 43.6035-80.127Z"/>
  </g>
  <g id="Regular-S" transform="matrix(1 0 0 1 1423.14 696)">
   <path class="monochrome-0 multicolor-0:tintColor hierarchical-0:primary SFSymbolsPreviewWireframe" d="M33.8867-0.146484C31.6406-0.341797 28.8574 0.292969 26.9531 1.46484C26.123 1.9043 26.0254 2.68555 26.709 3.36914C28.4668 4.93164 31.1523 6.10352 33.3984 6.29883C35.7422 6.5918 38.5742 5.85938 40.4297 4.44336C41.1133 3.95508 41.1621 3.27148 40.5273 2.68555C38.8672 1.12305 36.1816 0 33.8867-0.146484ZM41.8457-13.0371C40.625-11.1816 39.8926-8.39844 39.9902-6.15234C40.1367-3.80859 41.2109-1.07422 42.7246 0.585938C43.2617 1.17188 43.9453 1.17188 44.4336 0.537109C45.9473-1.26953 46.7773-4.10156 46.5332-6.49414C46.3867-8.74023 45.2637-11.377 43.7012-13.1348C43.1152-13.8672 42.3828-13.8184 41.8457-13.0371ZM23.0957-10.498C20.9961-11.2793 18.1152-11.3281 15.918-10.6934C15.0391-10.4492 14.7949-9.7168 15.2344-8.88672C16.5039-6.93359 18.7988-5.12695 20.9473-4.3457C23.0957-3.4668 26.0254-3.4668 28.2715-4.39453C29.0039-4.6875 29.1992-5.32227 28.7598-6.05469C27.5391-8.00781 25.293-9.76562 23.0957-10.498ZM34.0332-20.8984C32.373-19.4336 30.957-16.9434 30.5176-14.7461C30.0293-12.4512 30.3711-9.57031 31.3965-7.56836C31.7383-6.78711 32.4219-6.68945 33.1055-7.12891C34.9609-8.49609 36.4746-10.9863 36.8652-13.3789C37.3047-15.625 36.9141-18.5059 35.8887-20.6055C35.5469-21.4355 34.7656-21.582 34.0332-20.8984ZM6.88477-25.2441C7.17773-22.998 8.54492-20.3613 10.1562-18.75C11.7676-17.041 14.4531-15.8691 16.8945-15.8203C17.7246-15.7715 18.1152-16.3086 18.0176-17.1387C17.627-19.4824 16.2598-22.0215 14.6484-23.5352C12.9883-25.0488 10.4004-26.3184 8.1543-26.5625C7.17773-26.6602 6.73828-26.1719 6.88477-25.2441ZM28.9062-28.5645C26.709-27.8809 24.4141-26.1719 23.1445-24.3652C21.7773-22.5586 20.9473-19.8242 21.0449-17.4316C21.0938-16.6504 21.6797-16.2109 22.4609-16.3574C24.8047-16.8945 27.2461-18.5547 28.418-20.5566C29.7363-22.5098 30.5664-25.293 30.4199-27.5391C30.4199-28.5156 29.834-28.9062 28.9062-28.5645ZM22.4609-37.5488C20.6055-36.084 19.1406-33.5938 18.6523-31.3477C18.5547-30.5664 18.9453-29.9805 19.7266-29.9805C22.1191-29.8828 24.9023-30.9082 26.6113-32.4707C28.3691-33.9844 29.8828-36.4746 30.3711-38.7207C30.5176-39.6484 30.0293-40.1855 29.1504-40.1855C26.8066-39.9902 24.1211-38.9648 22.4609-37.5488ZM6.93359-42.4805C6.68945-40.1855 7.32422-37.3535 8.49609-35.4004C9.66797-33.3008 11.9629-31.4941 14.209-30.9082C14.9902-30.6641 15.5762-31.0059 15.6738-31.8359C15.918-34.082 15.2832-36.9141 14.0625-38.916C12.8418-40.8203 10.6445-42.6758 8.54492-43.457C7.66602-43.8477 7.03125-43.5059 6.93359-42.4805ZM24.5605-50.3906C22.3633-49.6582 20.0684-47.9004 18.8477-45.8984C18.457-45.2148 18.6523-44.5312 19.3848-44.1895C21.582-43.3105 24.5117-43.3105 26.709-44.2383C28.9551-45.0684 31.25-46.875 32.373-48.8281C32.8613-49.6094 32.6172-50.293 31.7383-50.5859C29.541-51.2207 26.6602-51.1719 24.5605-50.3906ZM11.6699-60.4004C10.6445-58.3008 10.3027-55.4199 10.7422-53.1738C11.1328-50.7812 12.6465-48.3398 14.5508-46.9727C15.1855-46.4844 15.8691-46.6797 16.2598-47.3633C17.2852-49.3652 17.5781-52.2461 17.0898-54.541C16.6016-56.7871 15.1855-59.2773 13.5742-60.791C12.8906-61.3281 12.1094-61.1816 11.6699-60.4004ZM31.543-61.4258C29.248-60.9863 26.7578-59.5703 25.293-57.7637C24.8047-57.1289 24.9512-56.4453 25.5859-56.0547C27.6367-54.834 30.5664-54.4434 32.8613-55.0781C35.1074-55.5664 37.5977-57.0312 39.0625-58.7402C39.6973-59.4727 39.502-60.2051 38.6719-60.5957C36.6211-61.5234 33.7891-61.8652 31.543-61.4258ZM20.166-73.1445C18.8477-71.1914 18.0664-68.3594 18.2129-66.1133C18.2617-63.7695 19.4336-61.1328 21.1426-59.4238C21.7773-58.8379 22.4609-58.9355 22.9004-59.5703C24.1699-61.5234 24.9512-64.3066 24.7559-66.6016C24.6094-68.7988 23.5352-71.4355 22.1191-73.2422C21.4844-73.9258 20.7031-73.877 20.166-73.1445ZM39.9902-77.0508C37.7441-76.709 35.2051-75.3906 33.5938-73.7793C31.9336-72.168 30.6641-69.5312 30.4199-67.2852C30.3223-66.4551 30.7617-66.0156 31.5918-66.0645C33.9355-66.1621 36.5723-67.3828 38.1836-69.1895C39.7461-70.752 41.0156-73.3887 41.3574-75.6836C41.4551-76.6602 40.9668-77.1973 39.9902-77.0508Z"/>
  </g>
  <g id="Ultralight-S" transform="matrix(1 0 0 1 533.547 696)">
   <path class="monochrome-0 multicolor-0:tintColor hierarchical-0:primary SFSymbolsPreviewWireframe" d="M33.251 0.353023C31.1411 0.203121 28.4941 0.792477 26.7261 1.87353C26.123 2.22217 26.0254 2.73096 26.5273 3.1875C28.1943 4.75 30.6982 5.87647 32.8535 6.02637C35.1519 6.31934 37.8023 5.63233 39.5669 4.26172C39.978 3.95508 40.0269 3.49853 39.6191 3.09424C38.0498 1.62255 35.5005 0.544918 33.251 0.353023ZM41.5278-12.6284C40.398-10.6367 39.7109-7.98975 39.854-6.01611C39.9551-3.854 40.9839-1.30127 42.4067 0.358889C42.8076 0.854006 43.2188 0.854006 43.5708 0.35547C44.9483-1.36035 45.6875-4.01074 45.4434-6.3125C45.2969-8.42237 44.2647-10.9683 42.8384-12.7261C42.3887-13.2769 41.8833-13.228 41.5278-12.6284ZM22.46-9.99854C20.3149-10.7344 17.5249-10.8286 15.5547-10.1939C14.9937-10.0405 14.8403-9.58057 15.1436-9.02295C16.3677-7.06982 18.5264-5.354 20.5386-4.66357C22.687-3.83008 25.4805-3.78467 27.4995-4.62158C28.0049-4.82373 28.1548-5.27686 27.8516-5.73682C26.6309-7.59912 24.4756-9.31153 22.46-9.99854ZM33.7153-20.4897C32.146-19.0249 30.8208-16.6255 30.4268-14.5645C29.9385-12.2695 30.2349-9.5249 31.2148-7.70459C31.4658-7.1958 31.9224-7.09814 32.3335-7.44677C34.0527-8.72314 35.4756-11.1226 35.8662-13.4243C36.3057-15.5342 35.915-18.2334 34.9351-20.2422C34.6841-20.8906 34.2207-20.9917 33.7153-20.4897ZM6.83936-25.1987C7.22314-22.998 8.49951-20.4976 10.0654-18.9316C11.6313-17.3589 14.0898-16.2778 16.3042-16.1836C16.8618-16.1348 17.1616-16.4902 17.064-17.0479C16.7188-19.3008 15.397-21.7036 13.8311-23.1265C12.3071-24.5947 9.90088-25.7734 7.74561-26.1084C7.13232-26.2061 6.73828-25.854 6.83936-25.1987ZM28.4067-28.1558C26.5273-27.5176 24.3687-25.8994 22.9629-24.0474C21.6411-22.3315 20.8564-19.688 20.9541-17.4316C21.0029-16.7866 21.3164-16.5742 21.916-16.7207C24.1235-17.2578 26.3833-18.8271 27.5552-20.6929C28.7827-22.6006 29.5674-25.2476 29.4663-27.4028C29.4663-28.1069 29.062-28.4067 28.4067-28.1558ZM22.1885-37.1855C20.5146-35.8115 19.0952-33.4575 18.6069-31.2568C18.5093-30.748 18.8091-30.3892 19.3179-30.3892C21.5742-30.2915 24.1758-31.2715 25.7485-32.7886C27.3701-34.166 28.8384-36.6108 29.3721-38.8115C29.4732-39.376 29.1211-39.7769 28.5147-39.7769C26.3525-39.5815 23.8486-38.5562 22.1885-37.1855ZM6.93359-42.4351C6.64404-40.4126 7.27881-37.7168 8.45068-35.6274C9.57715-33.6186 11.6904-31.9028 13.7549-31.3169C14.2637-31.1636 14.668-31.4145 14.7202-31.9722C15.0098-34.0366 14.4204-36.7324 13.1997-38.689C11.979-40.5933 9.87256-42.3125 8-43.0483C7.39356-43.3027 6.98584-43.0972 6.93359-42.4351ZM24.1973-50.0273C22.0908-49.2949 19.9321-47.5371 18.7568-45.7168C18.457-45.2603 18.6069-44.8037 19.1123-44.5981C21.1733-43.7646 23.9668-43.7646 26.0278-44.647C28.2285-45.5225 30.3872-47.2837 31.4194-49.1006C31.7261-49.6094 31.5274-50.0659 30.9663-50.2681C28.9053-50.8574 26.2061-50.7632 24.1973-50.0273ZM11.5791-60.2188C10.5991-58.1191 10.2573-55.3291 10.6968-53.2646C11.042-51.0991 12.4648-48.7485 14.2783-47.4268C14.686-47.0747 15.1426-47.1792 15.397-47.6811C16.4224-49.6831 16.7153-52.3823 16.1816-54.4502C15.7388-56.6055 14.4136-59.0049 12.8477-60.4731C12.3457-60.874 11.8369-60.773 11.5791-60.2188ZM31.0435-61.1079C28.7939-60.5776 26.4399-59.1616 25.1567-57.582C24.8501-57.2197 24.9058-56.7632 25.3589-56.4634C27.1826-55.2881 29.8853-54.9429 32.1348-55.5322C34.3809-56.0205 36.7803-57.4399 38.1543-59.1035C38.5166-59.5635 38.4575-60.1143 37.8999-60.3687C35.9399-61.2056 33.1987-61.502 31.0435-61.1079ZM19.9844-72.9629C18.7568-71.1006 18.021-68.4048 18.1675-66.2949C18.2163-64.0874 19.2974-61.5415 20.8701-59.8779C21.2778-59.4736 21.7798-59.4805 22.1284-59.979C23.3071-61.9775 23.9976-64.6245 23.8023-66.647C23.6558-68.7988 22.627-71.3447 21.2564-73.0151C20.8032-73.5171 20.3398-73.4683 19.9844-72.9629ZM39.3999-76.7329C37.2446-76.3457 34.7964-75.0728 33.3213-73.5977C31.7974-72.0771 30.5732-69.5767 30.2837-67.376C30.2314-66.8638 30.5347-66.5151 31.0923-66.5186C33.3906-66.707 35.8911-67.9277 37.3208-69.5981C38.7925-71.1606 39.9712-73.6157 40.313-75.8198C40.4107-76.4331 40.104-76.834 39.3999-76.7329Z"/>
  </g>
 </g>
</svg>
