<?xml version="1.0" encoding="UTF-8"?>
<!--Generator: Apple Native CoreSVG 341-->
<!DOCTYPE svg
PUBLIC "-//W3C//DTD SVG 1.1//EN"
       "http://www.w3.org/Graphics/SVG/1.1/DTD/svg11.dtd">
<svg version="1.1" xmlns="http://www.w3.org/2000/svg" xmlns:xlink="http://www.w3.org/1999/xlink" viewBox="0 0 3300 2200">
 <!--glyph: "", point size: 100.0, font version: "21.0d6e2", template writer version: "138.0.0"-->
 <style>.defaults {-sfsymbols-draw-reverses-motion-groups:false}

.monochrome-0 {-sfsymbols-motion-group:0;-sfsymbols-layer-tags:47234a8fdd2e8cbc app.background.dotted}

.multicolor-0:tintColor {-sfsymbols-motion-group:0;-sfsymbols-layer-tags:47234a8fdd2e8cbc app.background.dotted}

.hierarchical-0:primary {-sfsymbols-motion-group:0;-sfsymbols-layer-tags:47234a8fdd2e8cbc app.background.dotted}

.SFSymbolsPreviewWireframe {fill:none;opacity:1.0;stroke:black;stroke-width:0.5}
</style>
 <g id="Notes">
  <rect height="2200" id="artboard" style="fill:white;opacity:1" width="3300" x="0" y="0"/>
  <line style="fill:none;stroke:black;opacity:1;stroke-width:0.5;" x1="263" x2="3036" y1="292" y2="292"/>
  <text style="stroke:none;fill:black;font-family:sans-serif;font-size:13;font-weight:bold;" transform="matrix(1 0 0 1 263 322)">Weight/Scale Variations</text>
  <text style="stroke:none;fill:black;font-family:sans-serif;font-size:13;text-anchor:middle;" transform="matrix(1 0 0 1 559.711 322)">Ultralight</text>
  <text style="stroke:none;fill:black;font-family:sans-serif;font-size:13;text-anchor:middle;" transform="matrix(1 0 0 1 856.422 322)">Thin</text>
  <text style="stroke:none;fill:black;font-family:sans-serif;font-size:13;text-anchor:middle;" transform="matrix(1 0 0 1 1153.13 322)">Light</text>
  <text style="stroke:none;fill:black;font-family:sans-serif;font-size:13;text-anchor:middle;" transform="matrix(1 0 0 1 1449.84 322)">Regular</text>
  <text style="stroke:none;fill:black;font-family:sans-serif;font-size:13;text-anchor:middle;" transform="matrix(1 0 0 1 1746.56 322)">Medium</text>
  <text style="stroke:none;fill:black;font-family:sans-serif;font-size:13;text-anchor:middle;" transform="matrix(1 0 0 1 2043.27 322)">Semibold</text>
  <text style="stroke:none;fill:black;font-family:sans-serif;font-size:13;text-anchor:middle;" transform="matrix(1 0 0 1 2339.98 322)">Bold</text>
  <text style="stroke:none;fill:black;font-family:sans-serif;font-size:13;text-anchor:middle;" transform="matrix(1 0 0 1 2636.69 322)">Heavy</text>
  <text style="stroke:none;fill:black;font-family:sans-serif;font-size:13;text-anchor:middle;" transform="matrix(1 0 0 1 2933.4 322)">Black</text>
  <line style="fill:none;stroke:black;opacity:1;stroke-width:0.5;" x1="263" x2="3036" y1="1903" y2="1903"/>
  <g transform="matrix(0.2 0 0 0.2 263 1933)">
   <path d="m46.2402 4.15039c21.7773 0 39.4531-17.627 39.4531-39.4043s-17.6758-39.4043-39.4531-39.4043c-21.7285 0-39.4043 17.627-39.4043 39.4043s17.6758 39.4043 39.4043 39.4043Zm0-7.42188c-17.6758 0-31.9336-14.3066-31.9336-31.9824s14.2578-31.9824 31.9336-31.9824 31.9824 14.3066 31.9824 31.9824-14.3066 31.9824-31.9824 31.9824Zm3.61328-17.7734v-28.4668c0-2.24609-1.46484-3.75977-3.71094-3.75977-2.14844 0-3.61328 1.51367-3.61328 3.75977v28.4668c0 2.19727 1.46484 3.71094 3.61328 3.71094 2.24609 0 3.71094-1.51367 3.71094-3.71094Zm-17.8223-10.5957h28.418c2.19727 0 3.71094-1.46484 3.71094-3.61328 0-2.19727-1.51367-3.71094-3.71094-3.71094h-28.418c-2.24609 0-3.75977 1.51367-3.75977 3.71094 0 2.14844 1.51367 3.61328 3.75977 3.61328Z"/>
  </g>
  <g transform="matrix(0.2 0 0 0.2 281.506 1933)">
   <path d="m58.5449 14.5508c27.4902 0 49.8047-22.3145 49.8047-49.8047s-22.3145-49.8047-49.8047-49.8047-49.8047 22.3145-49.8047 49.8047 22.3145 49.8047 49.8047 49.8047Zm0-8.30078c-22.9492 0-41.5039-18.5547-41.5039-41.5039s18.5547-41.5039 41.5039-41.5039 41.5039 18.5547 41.5039 41.5039-18.5547 41.5039-41.5039 41.5039Zm4.05273-23.0957v-36.9141c0-2.49023-1.70898-4.19922-4.15039-4.19922-2.39258 0-4.05273 1.70898-4.05273 4.19922v36.9141c0 2.44141 1.66016 4.15039 4.05273 4.15039 2.44141 0 4.15039-1.66016 4.15039-4.15039Zm-22.5586-14.4043h36.9629c2.44141 0 4.15039-1.61133 4.15039-4.00391 0-2.44141-1.70898-4.15039-4.15039-4.15039h-36.9629c-2.49023 0-4.15039 1.70898-4.15039 4.15039 0 2.39258 1.66016 4.00391 4.15039 4.00391Z"/>
  </g>
  <g transform="matrix(0.2 0 0 0.2 304.924 1933)">
   <path d="m74.8535 28.3203c35.1074 0 63.623-28.4668 63.623-63.5742s-28.5156-63.623-63.623-63.623-63.5742 28.5156-63.5742 63.623 28.4668 63.5742 63.5742 63.5742Zm0-9.08203c-30.127 0-54.4922-24.3652-54.4922-54.4922s24.3652-54.4922 54.4922-54.4922 54.4922 24.3652 54.4922 54.4922-24.3652 54.4922-54.4922 54.4922Zm4.44336-30.3223v-48.4863c0-2.73438-1.85547-4.63867-4.54102-4.63867-2.58789 0-4.44336 1.9043-4.44336 4.63867v48.4863c0 2.68555 1.85547 4.58984 4.44336 4.58984 2.68555 0 4.54102-1.85547 4.54102-4.58984Zm-28.7109-19.7754h48.4863c2.68555 0 4.58984-1.80664 4.58984-4.39453 0-2.73438-1.85547-4.58984-4.58984-4.58984h-48.4863c-2.73438 0-4.58984 1.85547-4.58984 4.58984 0 2.58789 1.85547 4.39453 4.58984 4.39453Z"/>
  </g>
  <text style="stroke:none;fill:black;font-family:sans-serif;font-size:13;font-weight:bold;" transform="matrix(1 0 0 1 263 1953)">Design Variations</text>
  <text style="stroke:none;fill:black;font-family:sans-serif;font-size:13;" transform="matrix(1 0 0 1 263 1971)">Symbols are supported in up to nine weights and three scales.</text>
  <text style="stroke:none;fill:black;font-family:sans-serif;font-size:13;" transform="matrix(1 0 0 1 263 1989)">For optimal layout with text and other symbols, vertically align</text>
  <text style="stroke:none;fill:black;font-family:sans-serif;font-size:13;" transform="matrix(1 0 0 1 263 2007)">symbols with the adjacent text.</text>
  <line style="fill:none;stroke:#00AEEF;stroke-width:0.5;opacity:1.0;" x1="776" x2="776" y1="1919" y2="1933"/>
  <g transform="matrix(0.2 0 0 0.2 776 1933)">
   <path d="m16.5527 0.78125c2.58789 0 3.85742-0.976562 4.78516-3.71094l20.5566-57.5195h0.244141l20.6055 57.5195c0.927734 2.73438 2.19727 3.71094 4.73633 3.71094 2.58789 0 4.24805-1.5625 4.24805-4.00391 0-0.830078-0.146484-1.61133-0.537109-2.63672l-22.9004-60.9863c-1.12305-2.97852-3.125-4.49219-6.25-4.49219-3.02734 0-5.07812 1.46484-6.15234 4.44336l-22.9004 61.084c-0.390625 1.02539-0.537109 1.80664-0.537109 2.63672 0 2.44141 1.5625 3.95508 4.10156 3.95508Zm10.2051-20.9473h30.6641c2.00195 0 3.66211-1.66016 3.66211-3.66211 0-2.05078-1.66016-3.66211-3.66211-3.66211h-30.6641c-2.00195 0-3.66211 1.61133-3.66211 3.66211 0 2.00195 1.66016 3.66211 3.66211 3.66211Z"/>
  </g>
  <line style="fill:none;stroke:#00AEEF;stroke-width:0.5;opacity:1.0;" x1="792.836" x2="792.836" y1="1919" y2="1933"/>
  <text style="stroke:none;fill:black;font-family:sans-serif;font-size:13;font-weight:bold;" transform="matrix(1 0 0 1 776 1953)">Margins</text>
  <text style="stroke:none;fill:black;font-family:sans-serif;font-size:13;" transform="matrix(1 0 0 1 776 1971)">Leading and trailing margins on the left and right side of each symbol</text>
  <text style="stroke:none;fill:black;font-family:sans-serif;font-size:13;" transform="matrix(1 0 0 1 776 1989)">can be adjusted by modifying the x-location of the margin guidelines.</text>
  <text style="stroke:none;fill:black;font-family:sans-serif;font-size:13;" transform="matrix(1 0 0 1 776 2007)">Modifications are automatically applied proportionally to all</text>
  <text style="stroke:none;fill:black;font-family:sans-serif;font-size:13;" transform="matrix(1 0 0 1 776 2025)">scales and weights.</text>
  <g transform="matrix(0.2 0 0 0.2 1289 1933)">
   <path d="m14.209 13.1348 7.86133 7.86133c4.29688 4.39453 9.32617 4.10156 13.8672-1.02539l60.6934-68.2129-4.88281-4.88281-60.2539 67.6758c-1.80664 1.95312-3.4668 2.44141-5.81055 0.0976562l-5.17578-5.12695c-2.29492-2.29492-1.80664-3.95508 0.195312-5.81055l67.4805-62.1582-4.88281-4.83398-68.0664 62.5977c-4.98047 4.58984-5.32227 9.47266-1.02539 13.8184Zm44.873-97.4609c-2.05078 2.00195-2.24609 4.88281-1.07422 6.78711 1.12305 1.80664 3.4668 3.02734 6.5918 2.24609 5.85938-1.66016 12.5977-2.39258 18.8965 0.927734l-2.68555 7.12891c-1.61133 4.00391-0.732422 6.88477 1.70898 9.42383l10.2539 10.3027c2.34375 2.39258 4.54102 2.44141 7.08008 1.95312l4.44336-0.732422 2.58789 2.53906-0.195312 2.24609c-0.0976562 2.29492 0.537109 4.29688 2.7832 6.49414l3.36914 3.32031c2.29492 2.29492 5.51758 2.49023 7.8125 0.195312l12.9883-13.0371c2.29492-2.34375 2.14844-5.37109-0.195312-7.66602l-3.41797-3.41797c-2.19727-2.19727-4.05273-3.02734-6.34766-2.88086l-2.34375 0.244141-2.44141-2.44141 1.02539-4.6875c0.634766-2.73438-0.244141-4.98047-2.88086-7.61719l-11.2793-11.1816c-12.9395-12.8418-35.5957-11.0352-46.6797-0.146484Zm7.08008 2.05078c8.78906-6.39648 25.9766-5.66406 33.6914 1.95312l12.3047 12.207c1.02539 1.02539 1.2207 1.80664 0.927734 3.32031l-1.46484 6.64062 6.73828 6.68945 4.39453-0.244141c1.12305-0.0488281 1.51367 0.0488281 2.34375 0.878906l2.53906 2.49023-10.8398 10.8398-2.49023-2.49023c-0.830078-0.878906-0.976562-1.2207-0.927734-2.39258l0.292969-4.3457-6.68945-6.73828-6.83594 1.17188c-1.41602 0.292969-2.05078 0.195312-3.17383-0.878906l-8.93555-8.88672c-1.07422-1.02539-1.17188-1.70898-0.488281-3.36914l4.58984-11.4746c-6.10352-6.34766-17.041-7.51953-25.5859-4.58984-0.683594 0.244141-0.927734-0.390625-0.390625-0.78125Z"/>
  </g>
  <text style="stroke:none;fill:black;font-family:sans-serif;font-size:13;font-weight:bold;" transform="matrix(1 0 0 1 1289 1953)">Exporting</text>
  <text style="stroke:none;fill:black;font-family:sans-serif;font-size:13;" transform="matrix(1 0 0 1 1289 1971)">Symbols should be outlined when exporting to ensure the</text>
  <text style="stroke:none;fill:black;font-family:sans-serif;font-size:13;" transform="matrix(1 0 0 1 1289 1989)">design is preserved when submitting to Xcode.</text>
  <text id="template-version" style="stroke:none;fill:black;font-family:sans-serif;font-size:13;text-anchor:end;" transform="matrix(1 0 0 1 3036 1933)">Template v.7.0</text>
  <text style="stroke:none;fill:black;font-family:sans-serif;font-size:13;text-anchor:end;" transform="matrix(1 0 0 1 3036 1951)">Requires Xcode 17 or greater</text>
  <text id="descriptive-name" style="stroke:none;fill:black;font-family:sans-serif;font-size:13;text-anchor:end;" transform="matrix(1 0 0 1 3036 1969)">Generated from custom.app.background.dotted</text>
  <text style="stroke:none;fill:black;font-family:sans-serif;font-size:13;text-anchor:end;" transform="matrix(1 0 0 1 3036 1987)">Typeset at 100.0 points</text>
  <text style="stroke:none;fill:black;font-family:sans-serif;font-size:13;" transform="matrix(1 0 0 1 263 726)">Small</text>
  <text style="stroke:none;fill:black;font-family:sans-serif;font-size:13;" transform="matrix(1 0 0 1 263 1156)">Medium</text>
  <text style="stroke:none;fill:black;font-family:sans-serif;font-size:13;" transform="matrix(1 0 0 1 263 1586)">Large</text>
 </g>
 <g id="Guides">
  <g id="H-reference" style="fill:#27AAE1;stroke:none;" transform="matrix(1 0 0 1 339 696)">
   <path d="M0.993654 0L3.63775 0L29.3281-67.1323L30.0303-67.1323L30.0303-70.459L28.1226-70.459ZM11.6885-24.4799L46.9815-24.4799L46.2315-26.7285L12.4385-26.7285ZM55.1196 0L57.7637 0L30.6382-70.459L29.4326-70.459L29.4326-67.1323Z"/>
  </g>
  <line id="Baseline-S" style="fill:none;stroke:#27AAE1;opacity:1;stroke-width:0.5;" x1="263" x2="3036" y1="696" y2="696"/>
  <line id="Capline-S" style="fill:none;stroke:#27AAE1;opacity:1;stroke-width:0.5;" x1="263" x2="3036" y1="625.541" y2="625.541"/>
  <g id="H-reference" style="fill:#27AAE1;stroke:none;" transform="matrix(1 0 0 1 339 1126)">
   <path d="M0.993654 0L3.63775 0L29.3281-67.1323L30.0303-67.1323L30.0303-70.459L28.1226-70.459ZM11.6885-24.4799L46.9815-24.4799L46.2315-26.7285L12.4385-26.7285ZM55.1196 0L57.7637 0L30.6382-70.459L29.4326-70.459L29.4326-67.1323Z"/>
  </g>
  <line id="Baseline-M" style="fill:none;stroke:#27AAE1;opacity:1;stroke-width:0.5;" x1="263" x2="3036" y1="1126" y2="1126"/>
  <line id="Capline-M" style="fill:none;stroke:#27AAE1;opacity:1;stroke-width:0.5;" x1="263" x2="3036" y1="1055.54" y2="1055.54"/>
  <g id="H-reference" style="fill:#27AAE1;stroke:none;" transform="matrix(1 0 0 1 339 1556)">
   <path d="M0.993654 0L3.63775 0L29.3281-67.1323L30.0303-67.1323L30.0303-70.459L28.1226-70.459ZM11.6885-24.4799L46.9815-24.4799L46.2315-26.7285L12.4385-26.7285ZM55.1196 0L57.7637 0L30.6382-70.459L29.4326-70.459L29.4326-67.1323Z"/>
  </g>
  <line id="Baseline-L" style="fill:none;stroke:#27AAE1;opacity:1;stroke-width:0.5;" x1="263" x2="3036" y1="1556" y2="1556"/>
  <line id="Capline-L" style="fill:none;stroke:#27AAE1;opacity:1;stroke-width:0.5;" x1="263" x2="3036" y1="1485.54" y2="1485.54"/>
  <line id="right-margin-Black-S" style="fill:none;stroke:#00AEEF;stroke-width:0.5;opacity:1.0;" x1="2978.81" x2="2978.81" y1="600.785" y2="720.121"/>
  <line id="left-margin-Black-S" style="fill:none;stroke:#00AEEF;stroke-width:0.5;opacity:1.0;" x1="2887.99" x2="2887.99" y1="600.785" y2="720.121"/>
  <line id="right-margin-Regular-S" style="fill:none;stroke:#00AEEF;stroke-width:0.5;opacity:1.0;" x1="1494.94" x2="1494.94" y1="600.785" y2="720.121"/>
  <line id="left-margin-Regular-S" style="fill:none;stroke:#00AEEF;stroke-width:0.5;opacity:1.0;" x1="1404.75" x2="1404.75" y1="600.785" y2="720.121"/>
  <line id="right-margin-Ultralight-S" style="fill:none;stroke:#00AEEF;stroke-width:0.5;opacity:1.0;" x1="604.372" x2="604.372" y1="600.785" y2="720.121"/>
  <line id="left-margin-Ultralight-S" style="fill:none;stroke:#00AEEF;stroke-width:0.5;opacity:1.0;" x1="515.05" x2="515.05" y1="600.785" y2="720.121"/>
 </g>
 <g id="Symbols">
  <g id="Black-S" transform="matrix(1 0 0 1 2887.99 696)">
   <path class="monochrome-0 multicolor-0:tintColor hierarchical-0:primary SFSymbolsPreviewWireframe" d="M25.7812-65.5762C27.4414-65.5762 28.7598-66.8945 28.7598-68.5547C28.7598-70.2148 27.4414-71.5332 25.7812-71.5332C24.1211-71.5332 22.8027-70.2148 22.8027-68.5547C22.8027-66.8945 24.1211-65.5762 25.7812-65.5762ZM38.8672-65.5762C40.5273-65.5762 41.8457-66.8945 41.8457-68.5547C41.8457-70.2148 40.5273-71.5332 38.8672-71.5332C37.2559-71.5332 35.9375-70.2148 35.9375-68.5547C35.9375-66.8945 37.2559-65.5762 38.8672-65.5762ZM51.9531-65.5762C53.5645-65.5762 54.8828-66.8945 54.8828-68.5547C54.8828-70.2148 53.5645-71.5332 51.9531-71.5332C50.293-71.5332 48.9746-70.2148 48.9746-68.5547C48.9746-66.8945 50.293-65.5762 51.9531-65.5762ZM65.0879-65.5762C66.748-65.5762 68.0664-66.8945 68.0664-68.5547C68.0664-70.2148 66.748-71.5332 65.0879-71.5332C63.4277-71.5332 62.1094-70.2148 62.1094-68.5547C62.1094-66.8945 63.4277-65.5762 65.0879-65.5762ZM12.6953-52.2461C14.3555-52.2461 15.6738-53.5645 15.6738-55.2246C15.6738-56.8848 14.3555-58.2031 12.6953-58.2031C11.084-58.2031 9.76562-56.8848 9.76562-55.2246C9.76562-53.5645 11.084-52.2461 12.6953-52.2461ZM25.7812-51.5137C27.8809-51.5137 29.4922-53.125 29.4922-55.2246C29.4922-57.3242 27.8809-58.9844 25.7812-58.9844C23.6816-58.9844 22.0215-57.3242 22.0215-55.2246C22.0215-53.125 23.6816-51.5137 25.7812-51.5137ZM38.8672-50.3906C41.5039-50.3906 43.7012-52.5879 43.7012-55.2246C43.7012-57.8613 41.5039-60.0586 38.8672-60.0586C36.2305-60.0586 34.0332-57.8613 34.0332-55.2246C34.0332-52.5879 36.2305-50.3906 38.8672-50.3906ZM51.9531-50.3906C54.5898-50.3906 56.7871-52.5879 56.7871-55.2246C56.7871-57.8613 54.5898-60.0586 51.9531-60.0586C49.3164-60.0586 47.1191-57.8613 47.1191-55.2246C47.1191-52.5879 49.3164-50.3906 51.9531-50.3906ZM65.0879-51.5137C67.1875-51.5137 68.8477-53.125 68.8477-55.2246C68.8477-57.3242 67.1875-58.9844 65.0879-58.9844C62.9883-58.9844 61.377-57.3242 61.377-55.2246C61.377-53.125 62.9883-51.5137 65.0879-51.5137ZM78.125-52.2461C79.7363-52.2461 81.0547-53.5645 81.0547-55.2246C81.0547-56.8848 79.7363-58.2031 78.125-58.2031C76.4648-58.2031 75.1465-56.8848 75.1465-55.2246C75.1465-53.5645 76.4648-52.2461 78.125-52.2461ZM12.6953-38.9648C14.3555-38.9648 15.6738-40.2832 15.6738-41.9434C15.6738-43.6035 14.3555-44.9219 12.6953-44.9219C11.084-44.9219 9.76562-43.6035 9.76562-41.9434C9.76562-40.2832 11.084-38.9648 12.6953-38.9648ZM25.7812-37.1094C28.418-37.1094 30.6152-39.3066 30.6152-41.9434C30.6152-44.5801 28.418-46.7773 25.7812-46.7773C23.1445-46.7773 20.9473-44.5801 20.9473-41.9434C20.9473-39.3066 23.1445-37.1094 25.7812-37.1094ZM65.0879-37.1094C67.7246-37.1094 69.9219-39.3066 69.9219-41.9434C69.9219-44.5801 67.7246-46.7773 65.0879-46.7773C62.4512-46.7773 60.2539-44.5801 60.2539-41.9434C60.2539-39.3066 62.4512-37.1094 65.0879-37.1094ZM78.125-38.9648C79.7363-38.9648 81.0547-40.2832 81.0547-41.9434C81.0547-43.6035 79.7363-44.9219 78.125-44.9219C76.4648-44.9219 75.1465-43.6035 75.1465-41.9434C75.1465-40.2832 76.4648-38.9648 78.125-38.9648ZM12.6953-25.6348C14.3555-25.6348 15.6738-26.9531 15.6738-28.6133C15.6738-30.2734 14.3555-31.5918 12.6953-31.5918C11.084-31.5918 9.76562-30.2734 9.76562-28.6133C9.76562-26.9531 11.084-25.6348 12.6953-25.6348ZM25.7812-23.7793C28.418-23.7793 30.6152-25.9766 30.6152-28.6133C30.6152-31.25 28.418-33.4473 25.7812-33.4473C23.1445-33.4473 20.9473-31.25 20.9473-28.6133C20.9473-25.9766 23.1445-23.7793 25.7812-23.7793ZM65.0879-23.7793C67.7246-23.7793 69.9219-25.9766 69.9219-28.6133C69.9219-31.25 67.7246-33.4473 65.0879-33.4473C62.4512-33.4473 60.2539-31.25 60.2539-28.6133C60.2539-25.9766 62.4512-23.7793 65.0879-23.7793ZM78.125-25.6348C79.7363-25.6348 81.0547-26.9531 81.0547-28.6133C81.0547-30.2734 79.7363-31.5918 78.125-31.5918C76.4648-31.5918 75.1465-30.2734 75.1465-28.6133C75.1465-26.9531 76.4648-25.6348 78.125-25.6348ZM12.6953-12.2559C14.3555-12.2559 15.6738-13.5742 15.6738-15.2344C15.6738-16.8945 14.3555-18.2129 12.6953-18.2129C11.084-18.2129 9.76562-16.8945 9.76562-15.2344C9.76562-13.5742 11.084-12.2559 12.6953-12.2559ZM25.7812-11.4746C27.8809-11.4746 29.4922-13.1348 29.4922-15.2344C29.4922-17.334 27.8809-18.9453 25.7812-18.9453C23.6816-18.9453 22.0215-17.334 22.0215-15.2344C22.0215-13.1348 23.6816-11.4746 25.7812-11.4746ZM38.8672-10.4004C41.5039-10.4004 43.7012-12.5977 43.7012-15.2344C43.7012-17.8711 41.5039-20.0684 38.8672-20.0684C36.2305-20.0684 34.0332-17.8711 34.0332-15.2344C34.0332-12.5977 36.2305-10.4004 38.8672-10.4004ZM51.9531-10.4004C54.5898-10.4004 56.7871-12.5977 56.7871-15.2344C56.7871-17.8711 54.5898-20.0684 51.9531-20.0684C49.3164-20.0684 47.1191-17.8711 47.1191-15.2344C47.1191-12.5977 49.3164-10.4004 51.9531-10.4004ZM65.0879-11.4746C67.1875-11.4746 68.8477-13.1348 68.8477-15.2344C68.8477-17.334 67.1875-18.9453 65.0879-18.9453C62.9883-18.9453 61.377-17.334 61.377-15.2344C61.377-13.1348 62.9883-11.4746 65.0879-11.4746ZM78.125-12.2559C79.7363-12.2559 81.0547-13.5742 81.0547-15.2344C81.0547-16.8945 79.7363-18.2129 78.125-18.2129C76.4648-18.2129 75.1465-16.8945 75.1465-15.2344C75.1465-13.5742 76.4648-12.2559 78.125-12.2559ZM25.7812 1.12305C27.4414 1.12305 28.7598-0.195312 28.7598-1.85547C28.7598-3.51562 27.4414-4.83398 25.7812-4.83398C24.1211-4.83398 22.8027-3.51562 22.8027-1.85547C22.8027-0.195312 24.1211 1.12305 25.7812 1.12305ZM38.8672 1.12305C40.5273 1.12305 41.8457-0.195312 41.8457-1.85547C41.8457-3.51562 40.5273-4.83398 38.8672-4.83398C37.2559-4.83398 35.9375-3.51562 35.9375-1.85547C35.9375-0.195312 37.2559 1.12305 38.8672 1.12305ZM51.9531 1.12305C53.5645 1.12305 54.8828-0.195312 54.8828-1.85547C54.8828-3.51562 53.5645-4.83398 51.9531-4.83398C50.293-4.83398 48.9746-3.51562 48.9746-1.85547C48.9746-0.195312 50.293 1.12305 51.9531 1.12305ZM65.0879 1.12305C66.748 1.12305 68.0664-0.195312 68.0664-1.85547C68.0664-3.51562 66.748-4.83398 65.0879-4.83398C63.4277-4.83398 62.1094-3.51562 62.1094-1.85547C62.1094-0.195312 63.4277 1.12305 65.0879 1.12305ZM38.916-37.1582C41.5527-37.1582 43.75-39.3555 43.75-41.9922C43.75-44.6289 41.5527-46.8262 38.916-46.8262C36.2793-46.8262 34.082-44.6289 34.082-41.9922C34.082-39.3555 36.2793-37.1582 38.916-37.1582ZM51.9531-37.1582C54.5898-37.1582 56.7871-39.3555 56.7871-41.9922C56.7871-44.6289 54.5898-46.8262 51.9531-46.8262C49.3164-46.8262 47.1191-44.6289 47.1191-41.9922C47.1191-39.3555 49.3164-37.1582 51.9531-37.1582ZM38.916-23.8281C41.5527-23.8281 43.75-26.0254 43.75-28.6621C43.75-31.2988 41.5527-33.4961 38.916-33.4961C36.2793-33.4961 34.082-31.2988 34.082-28.6621C34.082-26.0254 36.2793-23.8281 38.916-23.8281ZM51.9531-23.8281C54.5898-23.8281 56.7871-26.0254 56.7871-28.6621C56.7871-31.2988 54.5898-33.4961 51.9531-33.4961C49.3164-33.4961 47.1191-31.2988 47.1191-28.6621C47.1191-26.0254 49.3164-23.8281 51.9531-23.8281Z"/>
  </g>
  <g id="Regular-S" transform="matrix(1 0 0 1 1404.75 696)">
   <path class="monochrome-0 multicolor-0:tintColor hierarchical-0:primary SFSymbolsPreviewWireframe" d="M25.4395-65.9668C26.9043-65.9668 28.0762-67.0898 28.0762-68.5547C28.0762-70.0195 26.9043-71.1426 25.4395-71.1426C24.0234-71.1426 22.8516-70.0195 22.8516-68.5547C22.8516-67.0898 24.0234-65.9668 25.4395-65.9668ZM38.5254-65.9668C39.9902-65.9668 41.1621-67.0898 41.1621-68.5547C41.1621-70.0195 39.9902-71.1426 38.5254-71.1426C37.1094-71.1426 35.9375-70.0195 35.9375-68.5547C35.9375-67.0898 37.1094-65.9668 38.5254-65.9668ZM51.6113-65.9668C53.0762-65.9668 54.248-67.0898 54.248-68.5547C54.248-70.0195 53.0762-71.1426 51.6113-71.1426C50.1953-71.1426 49.0234-70.0195 49.0234-68.5547C49.0234-67.0898 50.1953-65.9668 51.6113-65.9668ZM64.6973-65.9668C66.1621-65.9668 67.334-67.0898 67.334-68.5547C67.334-70.0195 66.1621-71.1426 64.6973-71.1426C63.2812-71.1426 62.1094-70.0195 62.1094-68.5547C62.1094-67.0898 63.2812-65.9668 64.6973-65.9668ZM12.3535-52.6367C13.8184-52.6367 14.9902-53.7598 14.9902-55.2246C14.9902-56.6895 13.8184-57.8125 12.3535-57.8125C10.9375-57.8125 9.76562-56.6895 9.76562-55.2246C9.76562-53.7598 10.9375-52.6367 12.3535-52.6367ZM25.4395-51.9531C27.2949-51.9531 28.7598-53.3691 28.7598-55.2246C28.7598-57.0801 27.2949-58.4961 25.4395-58.4961C23.6328-58.4961 22.168-57.0801 22.168-55.2246C22.168-53.3691 23.6328-51.9531 25.4395-51.9531ZM38.5254-50.9766C40.8691-50.9766 42.7734-52.9297 42.7734-55.2246C42.7734-57.5195 40.8691-59.4727 38.5254-59.4727C36.2305-59.4727 34.3262-57.5195 34.3262-55.2246C34.3262-52.9297 36.2305-50.9766 38.5254-50.9766ZM51.6113-50.9766C53.9551-50.9766 55.8594-52.9297 55.8594-55.2246C55.8594-57.5195 53.9551-59.4727 51.6113-59.4727C49.3164-59.4727 47.4121-57.5195 47.4121-55.2246C47.4121-52.9297 49.3164-50.9766 51.6113-50.9766ZM64.6973-51.9531C66.5527-51.9531 68.0176-53.3691 68.0176-55.2246C68.0176-57.0801 66.5527-58.4961 64.6973-58.4961C62.8906-58.4961 61.4258-57.0801 61.4258-55.2246C61.4258-53.3691 62.8906-51.9531 64.6973-51.9531ZM77.7832-52.6367C79.248-52.6367 80.4199-53.7598 80.4199-55.2246C80.4199-56.6895 79.248-57.8125 77.7832-57.8125C76.3672-57.8125 75.1953-56.6895 75.1953-55.2246C75.1953-53.7598 76.3672-52.6367 77.7832-52.6367ZM12.3535-39.2578C13.8184-39.2578 14.9902-40.4297 14.9902-41.8945C14.9902-43.3594 13.8184-44.4824 12.3535-44.4824C10.9375-44.4824 9.76562-43.3594 9.76562-41.8945C9.76562-40.4297 10.9375-39.2578 12.3535-39.2578ZM25.4395-37.6465C27.7832-37.6465 29.6875-39.5996 29.6875-41.8945C29.6875-44.1895 27.7832-46.1426 25.4395-46.1426C23.1445-46.1426 21.2402-44.1895 21.2402-41.8945C21.2402-39.5996 23.1445-37.6465 25.4395-37.6465ZM64.6973-37.6465C67.041-37.6465 68.9453-39.5996 68.9453-41.8945C68.9453-44.1895 67.041-46.1426 64.6973-46.1426C62.4023-46.1426 60.498-44.1895 60.498-41.8945C60.498-39.5996 62.4023-37.6465 64.6973-37.6465ZM77.7832-39.2578C79.248-39.2578 80.4199-40.4297 80.4199-41.8945C80.4199-43.3594 79.248-44.4824 77.7832-44.4824C76.3672-44.4824 75.1953-43.3594 75.1953-41.8945C75.1953-40.4297 76.3672-39.2578 77.7832-39.2578ZM12.3535-25.9766C13.8184-25.9766 14.9902-27.0996 14.9902-28.5645C14.9902-30.0293 13.8184-31.1523 12.3535-31.1523C10.9375-31.1523 9.76562-30.0293 9.76562-28.5645C9.76562-27.0996 10.9375-25.9766 12.3535-25.9766ZM25.4395-24.3164C27.7832-24.3164 29.6875-26.2695 29.6875-28.5645C29.6875-30.8594 27.7832-32.8125 25.4395-32.8125C23.1445-32.8125 21.2402-30.8594 21.2402-28.5645C21.2402-26.2695 23.1445-24.3164 25.4395-24.3164ZM64.6973-24.3164C67.041-24.3164 68.9453-26.2695 68.9453-28.5645C68.9453-30.8594 67.041-32.8125 64.6973-32.8125C62.4023-32.8125 60.498-30.8594 60.498-28.5645C60.498-26.2695 62.4023-24.3164 64.6973-24.3164ZM77.7832-25.9766C79.248-25.9766 80.4199-27.0996 80.4199-28.5645C80.4199-30.0293 79.248-31.1523 77.7832-31.1523C76.3672-31.1523 75.1953-30.0293 75.1953-28.5645C75.1953-27.0996 76.3672-25.9766 77.7832-25.9766ZM12.3535-12.5977C13.8184-12.5977 14.9902-13.7695 14.9902-15.2344C14.9902-16.6992 13.8184-17.8223 12.3535-17.8223C10.9375-17.8223 9.76562-16.6992 9.76562-15.2344C9.76562-13.7695 10.9375-12.5977 12.3535-12.5977ZM25.4395-11.9629C27.2949-11.9629 28.7598-13.3789 28.7598-15.2344C28.7598-17.041 27.2949-18.5059 25.4395-18.5059C23.6328-18.5059 22.168-17.041 22.168-15.2344C22.168-13.3789 23.6328-11.9629 25.4395-11.9629ZM38.5254-10.9863C40.8691-10.9863 42.7734-12.9395 42.7734-15.2344C42.7734-17.5293 40.8691-19.4824 38.5254-19.4824C36.2305-19.4824 34.3262-17.5293 34.3262-15.2344C34.3262-12.9395 36.2305-10.9863 38.5254-10.9863ZM51.6113-10.9863C53.9551-10.9863 55.8594-12.9395 55.8594-15.2344C55.8594-17.5293 53.9551-19.4824 51.6113-19.4824C49.3164-19.4824 47.4121-17.5293 47.4121-15.2344C47.4121-12.9395 49.3164-10.9863 51.6113-10.9863ZM64.6973-11.9629C66.5527-11.9629 68.0176-13.3789 68.0176-15.2344C68.0176-17.041 66.5527-18.5059 64.6973-18.5059C62.8906-18.5059 61.4258-17.041 61.4258-15.2344C61.4258-13.3789 62.8906-11.9629 64.6973-11.9629ZM77.7832-12.5977C79.248-12.5977 80.4199-13.7695 80.4199-15.2344C80.4199-16.6992 79.248-17.8223 77.7832-17.8223C76.3672-17.8223 75.1953-16.6992 75.1953-15.2344C75.1953-13.7695 76.3672-12.5977 77.7832-12.5977ZM25.4395 0.732422C26.9043 0.732422 28.0762-0.439453 28.0762-1.9043C28.0762-3.36914 26.9043-4.49219 25.4395-4.49219C24.0234-4.49219 22.8516-3.36914 22.8516-1.9043C22.8516-0.439453 24.0234 0.732422 25.4395 0.732422ZM38.5254 0.732422C39.9902 0.732422 41.1621-0.439453 41.1621-1.9043C41.1621-3.36914 39.9902-4.49219 38.5254-4.49219C37.1094-4.49219 35.9375-3.36914 35.9375-1.9043C35.9375-0.439453 37.1094 0.732422 38.5254 0.732422ZM51.6113 0.732422C53.0762 0.732422 54.248-0.439453 54.248-1.9043C54.248-3.36914 53.0762-4.49219 51.6113-4.49219C50.1953-4.49219 49.0234-3.36914 49.0234-1.9043C49.0234-0.439453 50.1953 0.732422 51.6113 0.732422ZM64.6973 0.732422C66.1621 0.732422 67.334-0.439453 67.334-1.9043C67.334-3.36914 66.1621-4.49219 64.6973-4.49219C63.2812-4.49219 62.1094-3.36914 62.1094-1.9043C62.1094-0.439453 63.2812 0.732422 64.6973 0.732422ZM38.5254-37.6465C40.8691-37.6465 42.7734-39.5996 42.7734-41.8945C42.7734-44.1895 40.8691-46.1426 38.5254-46.1426C36.2305-46.1426 34.3262-44.1895 34.3262-41.8945C34.3262-39.5996 36.2305-37.6465 38.5254-37.6465ZM51.6113-37.6465C53.9551-37.6465 55.8594-39.5996 55.8594-41.8945C55.8594-44.1895 53.9551-46.1426 51.6113-46.1426C49.3164-46.1426 47.4121-44.1895 47.4121-41.8945C47.4121-39.5996 49.3164-37.6465 51.6113-37.6465ZM38.5254-24.3164C40.8691-24.3164 42.7734-26.2695 42.7734-28.5645C42.7734-30.8594 40.8691-32.8125 38.5254-32.8125C36.2305-32.8125 34.3262-30.8594 34.3262-28.5645C34.3262-26.2695 36.2305-24.3164 38.5254-24.3164ZM51.6113-24.3164C53.9551-24.3164 55.8594-26.2695 55.8594-28.5645C55.8594-30.8594 53.9551-32.8125 51.6113-32.8125C49.3164-32.8125 47.4121-30.8594 47.4121-28.5645C47.4121-26.2695 49.3164-24.3164 51.6113-24.3164Z"/>
  </g>
  <g id="Ultralight-S" transform="matrix(1 0 0 1 515.05 696)">
   <path class="monochrome-0 multicolor-0:tintColor hierarchical-0:primary SFSymbolsPreviewWireframe" d="M25.0308-66.3755C26.2231-66.3755 27.2134-67.3623 27.2134-68.5547C27.2134-69.7471 26.2231-70.7339 25.0308-70.7339C23.8418-70.7339 22.8516-69.7471 22.8516-68.5547C22.8516-67.3623 23.8418-66.3755 25.0308-66.3755ZM38.1167-66.3755C39.3091-66.3755 40.2993-67.3623 40.2993-68.5547C40.2993-69.7471 39.3091-70.7339 38.1167-70.7339C36.9277-70.7339 35.9375-69.7471 35.9375-68.5547C35.9375-67.3623 36.9277-66.3755 38.1167-66.3755ZM51.2026-66.3755C52.395-66.3755 53.3853-67.3623 53.3853-68.5547C53.3853-69.7471 52.395-70.7339 51.2026-70.7339C50.0137-70.7339 49.0234-69.7471 49.0234-68.5547C49.0234-67.3623 50.0137-66.3755 51.2026-66.3755ZM64.2886-66.3755C65.481-66.3755 66.4712-67.3623 66.4712-68.5547C66.4712-69.7471 65.481-70.7339 64.2886-70.7339C63.0996-70.7339 62.1094-69.7471 62.1094-68.5547C62.1094-67.3623 63.0996-66.3755 64.2886-66.3755ZM11.9448-53.0454C13.1372-53.0454 14.1274-54.0322 14.1274-55.2246C14.1274-56.417 13.1372-57.4038 11.9448-57.4038C10.7559-57.4038 9.76562-56.417 9.76562-55.2246C9.76562-54.0322 10.7559-53.0454 11.9448-53.0454ZM25.0308-52.498C26.523-52.498 27.7608-53.7324 27.7608-55.2246C27.7608-56.7168 26.523-57.9512 25.0308-57.9512C23.542-57.9512 22.3042-56.7168 22.3042-55.2246C22.3042-53.7324 23.542-52.498 25.0308-52.498ZM38.1167-52.0664C39.8701-52.0664 41.2749-53.4746 41.2749-55.2246C41.2749-56.9746 39.8701-58.3828 38.1167-58.3828C36.3667-58.3828 34.9165-56.9746 34.9165-55.2246C34.9165-53.4746 36.3667-52.0664 38.1167-52.0664ZM51.2026-52.0664C52.9561-52.0664 54.3609-53.4746 54.3609-55.2246C54.3609-56.9746 52.9561-58.3828 51.2026-58.3828C49.4526-58.3828 48.0024-56.9746 48.0024-55.2246C48.0024-53.4746 49.4526-52.0664 51.2026-52.0664ZM64.2886-52.498C65.7808-52.498 67.0186-53.7324 67.0186-55.2246C67.0186-56.7168 65.7808-57.9512 64.2886-57.9512C62.7998-57.9512 61.562-56.7168 61.562-55.2246C61.562-53.7324 62.7998-52.498 64.2886-52.498ZM77.3745-53.0454C78.5669-53.0454 79.5571-54.0322 79.5571-55.2246C79.5571-56.417 78.5669-57.4038 77.3745-57.4038C76.1855-57.4038 75.1953-56.417 75.1953-55.2246C75.1953-54.0322 76.1855-53.0454 77.3745-53.0454ZM11.9448-39.5757C13.1372-39.5757 14.1274-40.5659 14.1274-41.7583C14.1274-42.9507 13.1372-44.0737 11.9448-44.0737C10.7559-44.0737 9.76562-42.9507 9.76562-41.7583C9.76562-40.5659 10.7559-39.5757 11.9448-39.5757ZM25.0308-38.7363C26.7842-38.7363 28.189-40.1445 28.189-41.8945C28.189-43.6445 26.7842-45.0527 25.0308-45.0527C23.2808-45.0527 21.8306-43.6445 21.8306-41.8945C21.8306-40.1445 23.2808-38.7363 25.0308-38.7363ZM64.2886-38.7363C66.042-38.7363 67.4468-40.1445 67.4468-41.8945C67.4468-43.6445 66.042-45.0527 64.2886-45.0527C62.5386-45.0527 61.0884-43.6445 61.0884-41.8945C61.0884-40.1445 62.5386-38.7363 64.2886-38.7363ZM77.3745-39.5757C78.5669-39.5757 79.5571-40.5659 79.5571-41.7583C79.5571-42.9507 78.5669-44.0737 77.3745-44.0737C76.1855-44.0737 75.1953-42.9507 75.1953-41.7583C75.1953-40.5659 76.1855-39.5757 77.3745-39.5757ZM11.9448-26.3853C13.1372-26.3853 14.1274-27.3721 14.1274-28.5645C14.1274-29.7568 13.1372-30.7437 11.9448-30.7437C10.7559-30.7437 9.76562-29.7568 9.76562-28.5645C9.76562-27.3721 10.7559-26.3853 11.9448-26.3853ZM25.0308-25.2246C26.7842-25.2246 28.189-26.6782 28.189-28.4282C28.189-30.1782 26.7842-31.5864 25.0308-31.5864C23.2808-31.5864 21.8306-30.1782 21.8306-28.4282C21.8306-26.6782 23.2808-25.2246 25.0308-25.2246ZM64.2886-25.2246C66.042-25.2246 67.4468-26.6782 67.4468-28.4282C67.4468-30.1782 66.042-31.5864 64.2886-31.5864C62.5386-31.5864 61.0884-30.1782 61.0884-28.4282C61.0884-26.6782 62.5386-25.2246 64.2886-25.2246ZM77.3745-26.3853C78.5669-26.3853 79.5571-27.3721 79.5571-28.5645C79.5571-29.7568 78.5669-30.7437 77.3745-30.7437C76.1855-30.7437 75.1953-29.7568 75.1953-28.5645C75.1953-27.3721 76.1855-26.3853 77.3745-26.3853ZM11.9448-12.9155C13.1372-12.9155 14.1274-13.9058 14.1274-15.0981C14.1274-16.2905 13.1372-17.2773 11.9448-17.2773C10.7559-17.2773 9.76562-16.2905 9.76562-15.0981C9.76562-13.9058 10.7559-12.9155 11.9448-12.9155ZM25.0308-12.3716C26.523-12.3716 27.7608-13.606 27.7608-15.0981C27.7608-16.5869 26.523-17.8247 25.0308-17.8247C23.542-17.8247 22.3042-16.5869 22.3042-15.0981C22.3042-13.606 23.542-12.3716 25.0308-12.3716ZM38.1167-11.8945C39.8701-11.8945 41.2749-13.3481 41.2749-15.0981C41.2749-16.8481 39.8701-18.2564 38.1167-18.2564C36.3667-18.2564 34.9165-16.8481 34.9165-15.0981C34.9165-13.3481 36.3667-11.8945 38.1167-11.8945ZM51.2026-11.8945C52.9561-11.8945 54.3609-13.3481 54.3609-15.0981C54.3609-16.8481 52.9561-18.2564 51.2026-18.2564C49.4526-18.2564 48.0024-16.8481 48.0024-15.0981C48.0024-13.3481 49.4526-11.8945 51.2026-11.8945ZM64.2886-12.3716C65.7808-12.3716 67.0186-13.606 67.0186-15.0981C67.0186-16.5869 65.7808-17.8247 64.2886-17.8247C62.7998-17.8247 61.562-16.5869 61.562-15.0981C61.562-13.606 62.7998-12.3716 64.2886-12.3716ZM77.3745-12.9155C78.5669-12.9155 79.5571-13.9058 79.5571-15.0981C79.5571-16.2905 78.5669-17.2773 77.3745-17.2773C76.1855-17.2773 75.1953-16.2905 75.1953-15.0981C75.1953-13.9058 76.1855-12.9155 77.3745-12.9155ZM25.0308 0.414553C26.2231 0.414553 27.2134-0.575683 27.2134-1.76807C27.2134-2.96045 26.2231-3.94727 25.0308-3.94727C23.8418-3.94727 22.8516-2.96045 22.8516-1.76807C22.8516-0.575683 23.8418 0.414553 25.0308 0.414553ZM38.1167 0.414553C39.3091 0.414553 40.2993-0.575683 40.2993-1.76807C40.2993-2.96045 39.3091-3.94727 38.1167-3.94727C36.9277-3.94727 35.9375-2.96045 35.9375-1.76807C35.9375-0.575683 36.9277 0.414553 38.1167 0.414553ZM51.2026 0.414553C52.395 0.414553 53.3853-0.575683 53.3853-1.76807C53.3853-2.96045 52.395-3.94727 51.2026-3.94727C50.0137-3.94727 49.0234-2.96045 49.0234-1.76807C49.0234-0.575683 50.0137 0.414553 51.2026 0.414553ZM64.2886 0.414553C65.481 0.414553 66.4712-0.575683 66.4712-1.76807C66.4712-2.96045 65.481-3.94727 64.2886-3.94727C63.0996-3.94727 62.1094-2.96045 62.1094-1.76807C62.1094-0.575683 63.0996 0.414553 64.2886 0.414553ZM38.1167-38.7363C39.8701-38.7363 41.2749-40.1445 41.2749-41.8945C41.2749-43.6445 39.8701-45.0527 38.1167-45.0527C36.3667-45.0527 34.9165-43.6445 34.9165-41.8945C34.9165-40.1445 36.3667-38.7363 38.1167-38.7363ZM51.2026-38.7363C52.9561-38.7363 54.3609-40.1445 54.3609-41.8945C54.3609-43.6445 52.9561-45.0527 51.2026-45.0527C49.4526-45.0527 48.0024-43.6445 48.0024-41.8945C48.0024-40.1445 49.4526-38.7363 51.2026-38.7363ZM38.1167-25.2246C39.8701-25.2246 41.2749-26.6782 41.2749-28.4282C41.2749-30.1782 39.8701-31.5864 38.1167-31.5864C36.3667-31.5864 34.9165-30.1782 34.9165-28.4282C34.9165-26.6782 36.3667-25.2246 38.1167-25.2246ZM51.2026-25.2246C52.9561-25.2246 54.3609-26.6782 54.3609-28.4282C54.3609-30.1782 52.9561-31.5864 51.2026-31.5864C49.4526-31.5864 48.0024-30.1782 48.0024-28.4282C48.0024-26.6782 49.4526-25.2246 51.2026-25.2246Z"/>
  </g>
 </g>
</svg>
