<?xml version="1.0" encoding="UTF-8"?>
<!--Generator: Apple Native CoreSVG 329.6-->
<!DOCTYPE svg
PUBLIC "-//W3C//DTD SVG 1.1//EN"
       "http://www.w3.org/Graphics/SVG/1.1/DTD/svg11.dtd">
<svg version="1.1" xmlns="http://www.w3.org/2000/svg" xmlns:xlink="http://www.w3.org/1999/xlink" viewBox="0 0 3300 2200">
 <!--glyph: "", point size: 100.0, font version: "20.0d10e1", template writer version: "138.0.0"-->
 <style>.monochrome-0 {-sfsymbols-motion-group:0;-sfsymbols-layer-tags:6c12622d8bf0b978 lightspectrum.horizontal}
.monochrome-1 {-sfsymbols-motion-group:0;-sfsymbols-layer-tags:6c12622d8bf0b978 lightspectrum.horizontal}
.monochrome-2 {-sfsymbols-motion-group:0;-sfsymbols-layer-tags:6c12622d8bf0b978 lightspectrum.horizontal}
.monochrome-3 {-sfsymbols-motion-group:0;-sfsymbols-layer-tags:6c12622d8bf0b978 lightspectrum.horizontal}
.monochrome-4 {-sfsymbols-motion-group:0;-sfsymbols-layer-tags:6c12622d8bf0b978 lightspectrum.horizontal}
.monochrome-5 {-sfsymbols-motion-group:0;-sfsymbols-layer-tags:6c12622d8bf0b978 lightspectrum.horizontal}
.monochrome-6 {-sfsymbols-motion-group:0;-sfsymbols-layer-tags:6c12622d8bf0b978 lightspectrum.horizontal}
.monochrome-7 {-sfsymbols-motion-group:0;-sfsymbols-layer-tags:6c12622d8bf0b978 lightspectrum.horizontal}
.monochrome-8 {-sfsymbols-motion-group:0;-sfsymbols-layer-tags:6c12622d8bf0b978 lightspectrum.horizontal}
.monochrome-9 {-sfsymbols-motion-group:0;-sfsymbols-layer-tags:6c12622d8bf0b978 lightspectrum.horizontal}

.multicolor-0:systemPurpleColor {-sfsymbols-motion-group:0;-sfsymbols-layer-tags:6c12622d8bf0b978 lightspectrum.horizontal}
.multicolor-1:systemIndigoColor {-sfsymbols-motion-group:0;-sfsymbols-layer-tags:6c12622d8bf0b978 lightspectrum.horizontal}
.multicolor-2:custom {fill:#3E33F1;-sfsymbols-motion-group:0;-sfsymbols-layer-tags:6c12622d8bf0b978 lightspectrum.horizontal}
.multicolor-3:systemBlueColor {-sfsymbols-motion-group:0;-sfsymbols-layer-tags:6c12622d8bf0b978 lightspectrum.horizontal}
.multicolor-4:systemMintColor {-sfsymbols-motion-group:0;-sfsymbols-layer-tags:6c12622d8bf0b978 lightspectrum.horizontal}
.multicolor-5:custom {fill:#57DF24;-sfsymbols-motion-group:0;-sfsymbols-layer-tags:6c12622d8bf0b978 lightspectrum.horizontal}
.multicolor-6:custom {fill:#ECF701;-sfsymbols-motion-group:0;-sfsymbols-layer-tags:6c12622d8bf0b978 lightspectrum.horizontal}
.multicolor-7:systemYellowColor {-sfsymbols-motion-group:0;-sfsymbols-layer-tags:6c12622d8bf0b978 lightspectrum.horizontal}
.multicolor-8:systemOrangeColor {-sfsymbols-motion-group:0;-sfsymbols-layer-tags:6c12622d8bf0b978 lightspectrum.horizontal}
.multicolor-9:systemRedColor {-sfsymbols-motion-group:0;-sfsymbols-layer-tags:6c12622d8bf0b978 lightspectrum.horizontal}

.hierarchical-0:primary {-sfsymbols-motion-group:0;-sfsymbols-layer-tags:6c12622d8bf0b978 lightspectrum.horizontal}
.hierarchical-1:primary {-sfsymbols-motion-group:0;-sfsymbols-layer-tags:6c12622d8bf0b978 lightspectrum.horizontal}
.hierarchical-2:primary {-sfsymbols-motion-group:0;-sfsymbols-layer-tags:6c12622d8bf0b978 lightspectrum.horizontal}
.hierarchical-3:primary {-sfsymbols-motion-group:0;-sfsymbols-layer-tags:6c12622d8bf0b978 lightspectrum.horizontal}
.hierarchical-4:primary {-sfsymbols-motion-group:0;-sfsymbols-layer-tags:6c12622d8bf0b978 lightspectrum.horizontal}
.hierarchical-5:primary {-sfsymbols-motion-group:0;-sfsymbols-layer-tags:6c12622d8bf0b978 lightspectrum.horizontal}
.hierarchical-6:primary {-sfsymbols-motion-group:0;-sfsymbols-layer-tags:6c12622d8bf0b978 lightspectrum.horizontal}
.hierarchical-7:primary {-sfsymbols-motion-group:0;-sfsymbols-layer-tags:6c12622d8bf0b978 lightspectrum.horizontal}
.hierarchical-8:primary {-sfsymbols-motion-group:0;-sfsymbols-layer-tags:6c12622d8bf0b978 lightspectrum.horizontal}
.hierarchical-9:primary {-sfsymbols-motion-group:0;-sfsymbols-layer-tags:6c12622d8bf0b978 lightspectrum.horizontal}

.SFSymbolsPreviewWireframe {fill:none;opacity:1.0;stroke:black;stroke-width:0.5}
</style>
 <g id="Notes">
  <rect height="2200" id="artboard" style="fill:white;opacity:1" width="3300" x="0" y="0"/>
  <line style="fill:none;stroke:black;opacity:1;stroke-width:0.5;" x1="263" x2="3036" y1="292" y2="292"/>
  <text style="stroke:none;fill:black;font-family:sans-serif;font-size:13;font-weight:bold;" transform="matrix(1 0 0 1 263 322)">Weight/Scale Variations</text>
  <text style="stroke:none;fill:black;font-family:sans-serif;font-size:13;text-anchor:middle;" transform="matrix(1 0 0 1 559.711 322)">Ultralight</text>
  <text style="stroke:none;fill:black;font-family:sans-serif;font-size:13;text-anchor:middle;" transform="matrix(1 0 0 1 856.422 322)">Thin</text>
  <text style="stroke:none;fill:black;font-family:sans-serif;font-size:13;text-anchor:middle;" transform="matrix(1 0 0 1 1153.13 322)">Light</text>
  <text style="stroke:none;fill:black;font-family:sans-serif;font-size:13;text-anchor:middle;" transform="matrix(1 0 0 1 1449.84 322)">Regular</text>
  <text style="stroke:none;fill:black;font-family:sans-serif;font-size:13;text-anchor:middle;" transform="matrix(1 0 0 1 1746.56 322)">Medium</text>
  <text style="stroke:none;fill:black;font-family:sans-serif;font-size:13;text-anchor:middle;" transform="matrix(1 0 0 1 2043.27 322)">Semibold</text>
  <text style="stroke:none;fill:black;font-family:sans-serif;font-size:13;text-anchor:middle;" transform="matrix(1 0 0 1 2339.98 322)">Bold</text>
  <text style="stroke:none;fill:black;font-family:sans-serif;font-size:13;text-anchor:middle;" transform="matrix(1 0 0 1 2636.69 322)">Heavy</text>
  <text style="stroke:none;fill:black;font-family:sans-serif;font-size:13;text-anchor:middle;" transform="matrix(1 0 0 1 2933.4 322)">Black</text>
  <line style="fill:none;stroke:black;opacity:1;stroke-width:0.5;" x1="263" x2="3036" y1="1903" y2="1903"/>
  <g transform="matrix(0.2 0 0 0.2 263 1933)">
   <path d="m46.2402 4.15039c21.7773 0 39.4531-17.627 39.4531-39.4043s-17.6758-39.4043-39.4531-39.4043c-21.7285 0-39.4043 17.627-39.4043 39.4043s17.6758 39.4043 39.4043 39.4043Zm0-7.42188c-17.6758 0-31.9336-14.3066-31.9336-31.9824s14.2578-31.9824 31.9336-31.9824 31.9824 14.3066 31.9824 31.9824-14.3066 31.9824-31.9824 31.9824Zm-17.9688-31.9824c0 2.14844 1.51367 3.61328 3.75977 3.61328h10.498v10.5957c0 2.19727 1.46484 3.71094 3.61328 3.71094 2.24609 0 3.71094-1.51367 3.71094-3.71094v-10.5957h10.5957c2.19727 0 3.71094-1.46484 3.71094-3.61328 0-2.19727-1.51367-3.71094-3.71094-3.71094h-10.5957v-10.5469c0-2.24609-1.46484-3.75977-3.71094-3.75977-2.14844 0-3.61328 1.51367-3.61328 3.75977v10.5469h-10.498c-2.24609 0-3.75977 1.51367-3.75977 3.71094Z"/>
  </g>
  <g transform="matrix(0.2 0 0 0.2 281.506 1933)">
   <path d="m58.5449 14.5508c27.4902 0 49.8047-22.3145 49.8047-49.8047s-22.3145-49.8047-49.8047-49.8047-49.8047 22.3145-49.8047 49.8047 22.3145 49.8047 49.8047 49.8047Zm0-8.30078c-22.9492 0-41.5039-18.5547-41.5039-41.5039s18.5547-41.5039 41.5039-41.5039 41.5039 18.5547 41.5039 41.5039-18.5547 41.5039-41.5039 41.5039Zm-22.6562-41.5039c0 2.39258 1.66016 4.00391 4.15039 4.00391h14.3555v14.4043c0 2.44141 1.66016 4.15039 4.05273 4.15039 2.44141 0 4.15039-1.66016 4.15039-4.15039v-14.4043h14.4043c2.44141 0 4.15039-1.61133 4.15039-4.00391 0-2.44141-1.70898-4.15039-4.15039-4.15039h-14.4043v-14.3555c0-2.49023-1.70898-4.19922-4.15039-4.19922-2.39258 0-4.05273 1.70898-4.05273 4.19922v14.3555h-14.3555c-2.49023 0-4.15039 1.70898-4.15039 4.15039Z"/>
  </g>
  <g transform="matrix(0.2 0 0 0.2 304.924 1933)">
   <path d="m74.8535 28.3203c35.1074 0 63.623-28.4668 63.623-63.5742s-28.5156-63.623-63.623-63.623-63.5742 28.5156-63.5742 63.623 28.4668 63.5742 63.5742 63.5742Zm0-9.08203c-30.127 0-54.4922-24.3652-54.4922-54.4922s24.3652-54.4922 54.4922-54.4922 54.4922 24.3652 54.4922 54.4922-24.3652 54.4922-54.4922 54.4922Zm-28.8574-54.4922c0 2.58789 1.85547 4.39453 4.58984 4.39453h19.7266v19.7754c0 2.68555 1.85547 4.58984 4.44336 4.58984 2.68555 0 4.54102-1.85547 4.54102-4.58984v-19.7754h19.7754c2.68555 0 4.58984-1.80664 4.58984-4.39453 0-2.73438-1.85547-4.58984-4.58984-4.58984h-19.7754v-19.7266c0-2.73438-1.85547-4.63867-4.54102-4.63867-2.58789 0-4.44336 1.9043-4.44336 4.63867v19.7266h-19.7266c-2.73438 0-4.58984 1.85547-4.58984 4.58984Z"/>
  </g>
  <text style="stroke:none;fill:black;font-family:sans-serif;font-size:13;font-weight:bold;" transform="matrix(1 0 0 1 263 1953)">Design Variations</text>
  <text style="stroke:none;fill:black;font-family:sans-serif;font-size:13;" transform="matrix(1 0 0 1 263 1971)">Symbols are supported in up to nine weights and three scales.</text>
  <text style="stroke:none;fill:black;font-family:sans-serif;font-size:13;" transform="matrix(1 0 0 1 263 1989)">For optimal layout with text and other symbols, vertically align</text>
  <text style="stroke:none;fill:black;font-family:sans-serif;font-size:13;" transform="matrix(1 0 0 1 263 2007)">symbols with the adjacent text.</text>
  <line style="fill:none;stroke:#00AEEF;stroke-width:0.5;opacity:1.0;" x1="776" x2="776" y1="1919" y2="1933"/>
  <g transform="matrix(0.2 0 0 0.2 776 1933)">
   <path d="m16.5527 0.78125c2.58789 0 3.85742-0.976562 4.78516-3.71094l6.29883-17.2363h28.8086l6.29883 17.2363c0.927734 2.73438 2.19727 3.71094 4.73633 3.71094 2.58789 0 4.24805-1.5625 4.24805-4.00391 0-0.830078-0.146484-1.61133-0.537109-2.63672l-22.9004-60.9863c-1.12305-2.97852-3.125-4.49219-6.25-4.49219-3.02734 0-5.07812 1.46484-6.15234 4.44336l-22.9004 61.084c-0.390625 1.02539-0.537109 1.80664-0.537109 2.63672 0 2.44141 1.5625 3.95508 4.10156 3.95508Zm13.4766-28.3691 11.8652-32.8613h0.244141l11.8652 32.8613Z"/>
  </g>
  <line style="fill:none;stroke:#00AEEF;stroke-width:0.5;opacity:1.0;" x1="792.836" x2="792.836" y1="1919" y2="1933"/>
  <text style="stroke:none;fill:black;font-family:sans-serif;font-size:13;font-weight:bold;" transform="matrix(1 0 0 1 776 1953)">Margins</text>
  <text style="stroke:none;fill:black;font-family:sans-serif;font-size:13;" transform="matrix(1 0 0 1 776 1971)">Leading and trailing margins on the left and right side of each symbol</text>
  <text style="stroke:none;fill:black;font-family:sans-serif;font-size:13;" transform="matrix(1 0 0 1 776 1989)">can be adjusted by modifying the x-location of the margin guidelines.</text>
  <text style="stroke:none;fill:black;font-family:sans-serif;font-size:13;" transform="matrix(1 0 0 1 776 2007)">Modifications are automatically applied proportionally to all</text>
  <text style="stroke:none;fill:black;font-family:sans-serif;font-size:13;" transform="matrix(1 0 0 1 776 2025)">scales and weights.</text>
  <g transform="matrix(0.2 0 0 0.2 1289 1933)">
   <path d="m14.209 9.32617 8.49609 8.54492c4.29688 4.3457 9.22852 4.05273 13.8672-1.07422l53.4668-58.9355-4.83398-4.88281-53.0762 58.3984c-1.75781 2.00195-3.41797 2.49023-5.76172 0.146484l-5.85938-5.81055c-2.34375-2.29492-1.80664-4.00391 0.195312-5.81055l57.373-54.0039-4.88281-4.83398-57.959 54.4434c-4.93164 4.58984-5.32227 9.47266-1.02539 13.8184Zm32.0801-90.9668c-2.09961 2.05078-2.24609 4.93164-1.07422 6.88477 1.17188 1.80664 3.4668 2.97852 6.68945 2.14844 7.32422-1.70898 14.9414-2.00195 22.0703 2.68555l-2.92969 7.27539c-1.70898 4.15039-0.830078 7.08008 1.85547 9.81445l11.4746 11.5723c2.44141 2.44141 4.49219 2.53906 7.32422 2.05078l5.32227-0.976562 3.32031 3.36914-0.195312 2.7832c-0.195312 2.49023 0.439453 4.39453 2.88086 6.78711l3.80859 3.71094c2.39258 2.39258 5.46875 2.53906 7.8125 0.195312l14.5508-14.5996c2.34375-2.34375 2.24609-5.32227-0.146484-7.71484l-3.85742-3.80859c-2.39258-2.39258-4.24805-3.17383-6.64062-2.97852l-2.88086 0.244141-3.22266-3.17383 1.2207-5.61523c0.634766-2.83203-0.146484-5.0293-3.07617-7.95898l-10.9863-10.9375c-16.6992-16.6016-38.8672-16.2109-53.3203-1.75781Zm7.4707 1.85547c12.1582-8.88672 28.6133-7.37305 39.7461 3.75977l12.1582 12.0605c1.17188 1.17188 1.36719 2.09961 1.02539 3.80859l-1.61133 7.42188 7.51953 7.42188 4.93164-0.292969c1.26953-0.0488281 1.66016 0.0488281 2.63672 1.02539l2.88086 2.88086-12.207 12.207-2.88086-2.88086c-0.976562-0.976562-1.12305-1.36719-1.07422-2.68555l0.341797-4.88281-7.4707-7.42188-7.61719 1.26953c-1.61133 0.341797-2.34375 0.195312-3.56445-0.976562l-10.0098-10.0098c-1.26953-1.17188-1.41602-2.00195-0.634766-3.85742l4.39453-10.4492c-7.8125-7.27539-17.9688-10.4004-28.125-7.42188-0.78125 0.195312-1.07422-0.439453-0.439453-0.976562Z"/>
  </g>
  <text style="stroke:none;fill:black;font-family:sans-serif;font-size:13;font-weight:bold;" transform="matrix(1 0 0 1 1289 1953)">Exporting</text>
  <text style="stroke:none;fill:black;font-family:sans-serif;font-size:13;" transform="matrix(1 0 0 1 1289 1971)">Symbols should be outlined when exporting to ensure the</text>
  <text style="stroke:none;fill:black;font-family:sans-serif;font-size:13;" transform="matrix(1 0 0 1 1289 1989)">design is preserved when submitting to Xcode.</text>
  <text id="template-version" style="stroke:none;fill:black;font-family:sans-serif;font-size:13;text-anchor:end;" transform="matrix(1 0 0 1 3036 1933)">Template v.6.0</text>
  <text style="stroke:none;fill:black;font-family:sans-serif;font-size:13;text-anchor:end;" transform="matrix(1 0 0 1 3036 1951)">Requires Xcode 16 or greater</text>
  <text id="descriptive-name" style="stroke:none;fill:black;font-family:sans-serif;font-size:13;text-anchor:end;" transform="matrix(1 0 0 1 3036 1969)">Generated from custom.lightspectrum.horizontal</text>
  <text style="stroke:none;fill:black;font-family:sans-serif;font-size:13;text-anchor:end;" transform="matrix(1 0 0 1 3036 1987)">Typeset at 100.0 points</text>
  <text style="stroke:none;fill:black;font-family:sans-serif;font-size:13;" transform="matrix(1 0 0 1 263 726)">Small</text>
  <text style="stroke:none;fill:black;font-family:sans-serif;font-size:13;" transform="matrix(1 0 0 1 263 1156)">Medium</text>
  <text style="stroke:none;fill:black;font-family:sans-serif;font-size:13;" transform="matrix(1 0 0 1 263 1586)">Large</text>
 </g>
 <g id="Guides">
  <g id="H-reference" style="fill:#27AAE1;stroke:none;" transform="matrix(1 0 0 1 339 696)">
   <path d="M0.993654 0L3.63775 0L29.3281-67.1323L30.0303-67.1323L30.0303-70.459L28.1226-70.459ZM11.6885-24.4799L46.9815-24.4799L46.2315-26.7285L12.4385-26.7285ZM55.1196 0L57.7637 0L30.6382-70.459L29.4326-70.459L29.4326-67.1323Z"/>
  </g>
  <line id="Baseline-S" style="fill:none;stroke:#27AAE1;opacity:1;stroke-width:0.5;" x1="263" x2="3036" y1="696" y2="696"/>
  <line id="Capline-S" style="fill:none;stroke:#27AAE1;opacity:1;stroke-width:0.5;" x1="263" x2="3036" y1="625.541" y2="625.541"/>
  <g id="H-reference" style="fill:#27AAE1;stroke:none;" transform="matrix(1 0 0 1 339 1126)">
   <path d="M0.993654 0L3.63775 0L29.3281-67.1323L30.0303-67.1323L30.0303-70.459L28.1226-70.459ZM11.6885-24.4799L46.9815-24.4799L46.2315-26.7285L12.4385-26.7285ZM55.1196 0L57.7637 0L30.6382-70.459L29.4326-70.459L29.4326-67.1323Z"/>
  </g>
  <line id="Baseline-M" style="fill:none;stroke:#27AAE1;opacity:1;stroke-width:0.5;" x1="263" x2="3036" y1="1126" y2="1126"/>
  <line id="Capline-M" style="fill:none;stroke:#27AAE1;opacity:1;stroke-width:0.5;" x1="263" x2="3036" y1="1055.54" y2="1055.54"/>
  <g id="H-reference" style="fill:#27AAE1;stroke:none;" transform="matrix(1 0 0 1 339 1556)">
   <path d="M0.993654 0L3.63775 0L29.3281-67.1323L30.0303-67.1323L30.0303-70.459L28.1226-70.459ZM11.6885-24.4799L46.9815-24.4799L46.2315-26.7285L12.4385-26.7285ZM55.1196 0L57.7637 0L30.6382-70.459L29.4326-70.459L29.4326-67.1323Z"/>
  </g>
  <line id="Baseline-L" style="fill:none;stroke:#27AAE1;opacity:1;stroke-width:0.5;" x1="263" x2="3036" y1="1556" y2="1556"/>
  <line id="Capline-L" style="fill:none;stroke:#27AAE1;opacity:1;stroke-width:0.5;" x1="263" x2="3036" y1="1485.54" y2="1485.54"/>
  <line id="right-margin-Black-S" style="fill:none;stroke:#00AEEF;stroke-width:0.5;opacity:1.0;" x1="2982.23" x2="2982.23" y1="600.785" y2="720.121"/>
  <line id="left-margin-Black-S" style="fill:none;stroke:#00AEEF;stroke-width:0.5;opacity:1.0;" x1="2884.57" x2="2884.57" y1="600.785" y2="720.121"/>
  <line id="right-margin-Regular-S" style="fill:none;stroke:#00AEEF;stroke-width:0.5;opacity:1.0;" x1="1496.11" x2="1496.11" y1="600.785" y2="720.121"/>
  <line id="left-margin-Regular-S" style="fill:none;stroke:#00AEEF;stroke-width:0.5;opacity:1.0;" x1="1403.58" x2="1403.58" y1="600.785" y2="720.121"/>
  <line id="right-margin-Ultralight-S" style="fill:none;stroke:#00AEEF;stroke-width:0.5;opacity:1.0;" x1="603.773" x2="603.773" y1="600.785" y2="720.121"/>
  <line id="left-margin-Ultralight-S" style="fill:none;stroke:#00AEEF;stroke-width:0.5;opacity:1.0;" x1="515.649" x2="515.649" y1="600.785" y2="720.121"/>
 </g>
 <g id="Symbols">
  <g id="Black-S" transform="matrix(1 0 0 1 2884.57 696)">
   <path class="monochrome-0 multicolor-0:systemPurpleColor hierarchical-0:primary SFSymbolsPreviewWireframe" d="M90.8203-35.2539C90.8203-43.75 88.2812-51.6602 83.9355-58.252L83.9355-12.2559C88.2812-18.8477 90.8203-26.7578 90.8203-35.2539Z"/>
   <path class="monochrome-1 multicolor-1:systemIndigoColor hierarchical-1:primary SFSymbolsPreviewWireframe" d="M75.3906-2.7832C77.9297-4.83398 80.2246-7.22656 82.2266-9.81445L82.2266-60.6934C80.2246-63.2812 77.9297-65.6738 75.3906-67.7246Z"/>
   <path class="monochrome-2 multicolor-2:custom hierarchical-2:primary SFSymbolsPreviewWireframe" d="M66.7969 2.68555C69.2383 1.51367 71.5332 0.146484 73.6816-1.41602L73.6816-69.0918C71.5332-70.6543 69.2383-72.0215 66.7969-73.1934Z"/>
   <path class="monochrome-3 multicolor-3:systemBlueColor hierarchical-3:primary SFSymbolsPreviewWireframe" d="M58.252 5.66406C60.5957 5.12695 62.8906 4.39453 65.0879 3.4668L65.0879-73.9746C62.8906-74.9023 60.5957-75.6348 58.252-76.1719Z"/>
   <path class="monochrome-4 multicolor-4:systemMintColor hierarchical-4:primary SFSymbolsPreviewWireframe" d="M49.707 6.73828C52.0508 6.68945 54.2969 6.44531 56.543 6.00586L56.543-76.5137C54.2969-76.9531 52.0508-77.1973 49.707-77.2461Z"/>
   <path class="monochrome-5 multicolor-5:custom hierarchical-5:primary SFSymbolsPreviewWireframe" d="M41.1133 6.00586C43.3594 6.44531 45.6055 6.68945 47.9492 6.73828L47.9492-77.2461C45.6055-77.1973 43.3594-76.9531 41.1133-76.5137Z"/>
   <path class="monochrome-6 multicolor-6:custom hierarchical-6:primary SFSymbolsPreviewWireframe" d="M32.5684 3.4668C34.7656 4.39453 37.0117 5.12695 39.3555 5.66406L39.3555-76.1719C37.0117-75.6348 34.7656-74.9023 32.5684-73.9746Z"/>
   <path class="monochrome-7 multicolor-7:systemYellowColor hierarchical-7:primary SFSymbolsPreviewWireframe" d="M23.9746-1.41602C26.123 0.146484 28.418 1.51367 30.8594 2.68555L30.8594-73.1934C28.418-72.0215 26.123-70.6543 23.9746-69.0918Z"/>
   <path class="monochrome-8 multicolor-8:systemOrangeColor hierarchical-8:primary SFSymbolsPreviewWireframe" d="M15.4297-9.81445C17.4316-7.22656 19.7266-4.83398 22.2656-2.7832L22.2656-67.7246C19.7266-65.6738 17.4316-63.2812 15.4297-60.6934Z"/>
   <path class="monochrome-9 multicolor-9:systemRedColor hierarchical-9:primary SFSymbolsPreviewWireframe" d="M6.83594-35.2539C6.83594-26.7578 9.375-18.8477 13.7207-12.2559L13.7207-58.252C9.375-51.6602 6.83594-43.75 6.83594-35.2539Z"/>
  </g>
  <g id="Regular-S" transform="matrix(1 0 0 1 1403.58 696)">
   <path class="monochrome-0 multicolor-0:systemPurpleColor hierarchical-0:primary SFSymbolsPreviewWireframe" d="M85.6934-35.2539C85.6934-41.8945 83.9844-48.1934 80.957-53.7109L80.957-16.7969C83.9844-22.3145 85.6934-28.6133 85.6934-35.2539Z"/>
   <path class="monochrome-1 multicolor-1:systemIndigoColor hierarchical-1:primary SFSymbolsPreviewWireframe" d="M72.7051-6.20117C74.4141-7.76367 76.0254-9.47266 77.4414-11.3281L77.4414-59.1309C76.0254-60.9863 74.4141-62.7441 72.7051-64.3066Z"/>
   <path class="monochrome-2 multicolor-2:custom hierarchical-2:primary SFSymbolsPreviewWireframe" d="M64.4531-0.390625C66.1133-1.26953 67.6758-2.24609 69.1895-3.36914L69.1895-67.1387C67.6758-68.2617 66.1133-69.2383 64.4531-70.1172Z"/>
   <path class="monochrome-3 multicolor-3:systemBlueColor hierarchical-3:primary SFSymbolsPreviewWireframe" d="M56.25 2.88086C57.8613 2.39258 59.4238 1.9043 60.9375 1.26953L60.9375-71.7285C59.4238-72.4121 57.8613-72.9004 56.25-73.3398Z"/>
   <path class="monochrome-4 multicolor-4:systemMintColor hierarchical-4:primary SFSymbolsPreviewWireframe" d="M47.998 4.10156C49.6094 4.05273 51.1719 3.85742 52.7344 3.66211L52.7344-74.1211C51.1719-74.3652 49.6094-74.5605 47.998-74.6094Z"/>
   <path class="monochrome-5 multicolor-5:custom hierarchical-5:primary SFSymbolsPreviewWireframe" d="M39.7949 3.66211C41.3574 3.85742 42.9199 4.05273 44.5312 4.10156L44.5312-74.6094C42.9199-74.5605 41.3574-74.3652 39.7949-74.1699Z"/>
   <path class="monochrome-6 multicolor-6:custom hierarchical-6:primary SFSymbolsPreviewWireframe" d="M31.543 1.26953C33.0566 1.9043 34.668 2.39258 36.2793 2.88086L36.2793-73.3887C34.668-72.9492 33.0566-72.4121 31.543-71.7773Z"/>
   <path class="monochrome-7 multicolor-7:systemYellowColor hierarchical-7:primary SFSymbolsPreviewWireframe" d="M23.3398-3.36914C24.8535-2.24609 26.3672-1.26953 28.0273-0.390625L28.0273-70.1172C26.3672-69.2871 24.8535-68.3105 23.3398-67.1875Z"/>
   <path class="monochrome-8 multicolor-8:systemOrangeColor hierarchical-8:primary SFSymbolsPreviewWireframe" d="M15.0879-11.3281C16.5039-9.47266 18.1152-7.76367 19.8242-6.20117L19.8242-64.3555C18.1152-62.793 16.5039-61.0352 15.0879-59.1797Z"/>
   <path class="monochrome-9 multicolor-9:systemRedColor hierarchical-9:primary SFSymbolsPreviewWireframe" d="M6.83594-35.2539C6.83594-28.6133 8.54492-22.3145 11.5723-16.7969L11.5723-53.7109C8.54492-48.1934 6.83594-41.8945 6.83594-35.2539Z"/>
  </g>
  <g id="Ultralight-S" transform="matrix(1 0 0 1 515.649 696)">
   <path class="monochrome-0 multicolor-0:systemPurpleColor hierarchical-0:primary SFSymbolsPreviewWireframe" d="M81.2886-35.2539C81.2886-39.5332 80.5332-43.607 79.186-47.4444L79.186-23.0634C80.5332-26.9008 81.2886-30.9746 81.2886-35.2539Z"/>
   <path class="monochrome-1 multicolor-1:systemIndigoColor hierarchical-1:primary SFSymbolsPreviewWireframe" d="M71.1611-9.83396C71.9165-10.5791 72.5742-11.4253 73.2637-12.2363L73.2637-58.2681C72.5742-59.0791 71.9165-59.9287 71.1611-60.6739Z"/>
   <path class="monochrome-2 multicolor-2:custom hierarchical-2:primary SFSymbolsPreviewWireframe" d="M63.0908-3.29685C63.8428-3.72166 64.4971-4.19872 65.1934-4.68602L65.1934-65.8218C64.4971-66.3091 63.8428-66.7862 63.0908-67.211Z"/>
   <path class="monochrome-3 multicolor-3:systemBlueColor hierarchical-3:primary SFSymbolsPreviewWireframe" d="M55.0693 0.292501C55.7725 0.0766784 56.5176-0.184554 57.1685-0.456041L57.1685-70.0484C56.5176-70.3233 55.7725-70.5845 55.0693-70.7969Z"/>
   <path class="monochrome-4 multicolor-4:systemMintColor hierarchical-4:primary SFSymbolsPreviewWireframe" d="M47.0444 1.83107C47.7022 1.78224 48.4473 1.72316 49.1016 1.61867L49.1016-72.1231C48.4473-72.231 47.7022-72.2901 47.0444-72.3389Z"/>
   <path class="monochrome-5 multicolor-5:custom hierarchical-5:primary SFSymbolsPreviewWireframe" d="M39.023 1.61867C39.6773 1.72316 40.4224 1.78224 41.0801 1.83107L41.0801-72.3389C40.4224-72.2901 39.6773-72.231 39.023-72.1265Z"/>
   <path class="monochrome-6 multicolor-6:custom hierarchical-6:primary SFSymbolsPreviewWireframe" d="M30.9526-0.456041C31.6035-0.184554 32.3521 0.0766784 33.0098 0.292501L33.0098-70.8003C32.3521-70.5879 31.6035-70.3233 30.9526-70.0518Z"/>
   <path class="monochrome-7 multicolor-7:systemYellowColor hierarchical-7:primary SFSymbolsPreviewWireframe" d="M22.9312-4.68602C23.582-4.19872 24.2783-3.72166 25.0303-3.29685L25.0303-67.211C24.2783-66.7896 23.582-66.3125 22.9312-65.8252Z"/>
   <path class="monochrome-8 multicolor-8:systemOrangeColor hierarchical-8:primary SFSymbolsPreviewWireframe" d="M14.8608-12.2363C15.5503-11.4253 16.208-10.5791 16.9634-9.83396L16.9634-60.6773C16.208-59.9322 15.5503-59.0825 14.8608-58.2715Z"/>
   <path class="monochrome-9 multicolor-9:systemRedColor hierarchical-9:primary SFSymbolsPreviewWireframe" d="M6.83594-35.2539C6.83594-30.9746 7.59132-26.9008 8.9385-23.0634L8.9385-47.4444C7.59132-43.607 6.83594-39.5332 6.83594-35.2539Z"/>
  </g>
 </g>
</svg>
